<mxfile host="app.diagrams.net" agent="Mozilla/5.0 (Windows NT 10.0; Win64; x64) AppleWebKit/537.36 (KHTML, like Gecko) Chrome/131.0.0.0 Safari/537.36" version="24.7.7">
  <diagram name="페이지-1" id="mLwNo2jxS3i416j57n5w">
    <mxGraphModel dx="1687" dy="878" grid="0" gridSize="10" guides="1" tooltips="1" connect="1" arrows="1" fold="1" page="0" pageScale="1" pageWidth="827" pageHeight="1169" math="0" shadow="0">
      <root>
        <mxCell id="0" />
        <mxCell id="1" parent="0" />
        <mxCell id="4Q7gMns1i78unIfoOugQ-1" value="" style="shape=image;verticalLabelPosition=bottom;labelBackgroundColor=default;verticalAlign=top;aspect=fixed;imageAspect=0;image=data:image/png,iVBORw0KGgoAAAANSUhEUgAAAuwAAAHzCAIAAAD0Kt94AAAgAElEQVR4Ae29f3Bkx33gt5Uq/xeq7CRS4qNPNmwhMqKr8vnk3J19SWyXWfGVC1qn1nHKPtelrlI6x67UEbIJ6AdFseQ7Kzr6LIlRYtXdjQSJImlrqRV5IilapASBkLTiSiQl/ljuArtYEDvYxY/dxf4Ad5fLH8BLve7X/br7dffMYOYN3rz5sFBET3e//vHpt+gPvq9nsO+VV7ZeeWVr8eTCc8eX//zg0ugfHuYLAhCAAAQgAAEIVIrAnx9cen5+efnl+YsXXtRf+7Y21xdPzD9/fPnD9y5WargMBgIQgAAEIAABCGgCH7538fn55dPLx3KJOXXi2MnFU8RgNCMSEIAABCAAAQhUk8CfH1xaPLV4duWo9Jh9Cwvzn/v6cjXHyqggAAEIQAACEICASeBzX19eWJjfPJ8+VNp35MXme/71j8xi0hCAAAQgAAEIQKCaBN7zr3/01AvN5umXUon5xIMvV3OUjAoCEIAABCAAAQgUCXziwZcXFtITvvt+884fFovJgQAEIAABCEAAAtUk8Jt3/vDpFxZXzx7dV83xMSoIQAACEIAABCAQInDfN5dOLx9DYvhcHAhAAAIQgAAEekPgA184+bGDS+9+3/dD8qHz3/2+73/s4NIHvnBS53SUuPPehVOnFrqWmAcuX0neeOqBbia/vthtC1bvD6wlV+bdgz4fn38juXb543yUHwQgAAEIQAACpRH4wBdOfvqRZkuPeff7vv/pR5qffqS5a4n53z/x4sLCfJcS82wqB0kqDb/emsjLT11LFg9bwiG0qygxac0W/4WNBInpSGapDAEIQAACEOgVARlfiXuMNpiPHVz6tQ89s7uu/8cPPH38+PEuJOaOhfuW30hef/3Jb5xffD25cvb8Rz9WFBQzp32JMa9K0w+sJcnaenieUekRFxKJCdNzaVMTAhCAAAQgsGsCcY/picGM/uHhv/+vjuxKYu44+n/9zcrD89evbCc3Llz+3P8ntsCPnXr47BvJ9va55Yv3PbTwXr/NpKpx49SK5JJ6Sf5f9IHUHWsvbSfJja3PtA72BPdjJGbXtyMXQgACEIAABDoiEPKYXhmMHMwuJGbxyStJ8vobKycvfOYLzzlT+vXGyuMnX71yYzs9fXJHwSe+cPHcje0b268+LL0nN5Li4yTr2tuffz258fq515Nzz0f/utMdC5978fqV15UZXXv9padO/bbqBYlxFouXEIAABCAAgfIIFD2mtwYz+oeHdyExll6kk2/3YO+xhzfeWPz2sY/Pv3Hj4kVbcWIS8+uHLl/ZfuOpQ8/++mNbMhEgfvSBs9vJtesPP3RMiMtzt3/r8rnXkyvHshO+SEyAW2FBlfZRHwIQgAAEINANAdNjfu1Dz8iTvN2cg3EG0zeJSc//3lhbf2+6QT73yfnXb1y7/vDf6EBOUGLe+/jWue03fvj4MTnu937r6pXtN374jQXPIeJPXVhJtn/4qLUl//NnXk22r35O7MpIjLP2vIQABCAAAQiUTUB7TM8NZheRmPVF9aymje/XH5C/09+x8LmTr9+4Yj5gevZPn7x65carD98rncMjMb/9hZXHz76Rus79z5qIf/3+84vXtq+sXbzPeZgVkhh1kgaJMTGShgAEIAABCPSHgI7BfPqR5v5/o+MXVtBhdyPpRSSmxdOHF9K4y8aFjxaPyOQXOhLzwseff/XGDetEi/3upOc++tTVcze2z7348v+WN6IeJx06KuI0PE7qwf2xu7uKqyAAAQhAAAKSgD4HoyMx7XwOXpv0+iAx1lb623+z/tTaGzf02dskuXHt9cUXz/5pTHHSFmyJsdrMp8rB3lzpAoioAAEIQAACEOgXAW0wHzu4tP/fPPexg0vxz4/JN/T2Rrg7iYl+KIv44DvvON57+PqNZHvl5Pon/4MMlhwe/dixP31o/YcXt5NXzIdNng24LYlRc+bD7rz8yYQABCAAAQj0jYBpMPIT7fT5mJaf59vmIHcnMR7JUP2lflP8yH9ReuqpV5JzL/reI33H2ZduJCvPHFWNeNpHYiJwKIIABCAAAQhUikDRYOTweusxVZSY9ARu2/9lwnT4evyKxcOHOdhbqfubwUAAAhCAQF0JhAxGzreHHtNPiTnsfZz00ccuvHSl9eOk7lcaiemeIS1AAAIQgAAE4gTiBiOv7ZXH9FViRv/w8K4P9saRtVOKxLRDiToQgAAEIACBbgjo07vxv+xoesyuu+u3xOx6oN1fiMR0z5AWIAABCEAAAnECf/yZ421+Ju+73/f9D3zh5B9/5ni8wUhpzyXGcyY30j1FEIAABCAAAQhAYHcEkBisCwIQgAAEIACBgSSAxAzksu3OWLkKAhCAAAQgUCcCSAwSAwEIQAACEIDAQBJAYgZy2erk0cwFAhCAAAQgsDsCSAwSAwEIQAACEIDAQBJAYgZy2XZnrFwFAQhAAAIQqBMBJAaJgQAEIAABCEBgIAkgMQO5bHXyaOYCAQhAAAIQ2B0BJAaJgQAEIAABCEBgIAkgMQO5bLszVq6CAAQgAAEI1IlAKjHH+Q8CEIAABCAAAQgMIIF9Cf9BAAIQgAAEIACBQSOQRmIGbcyMFwIQgAAEIAABCCRIDDcBBCAAAQhAAAIDSQCJGchlY9AQgAAEIAABCCAx3AMQgAAEIAABCAwkASRmIJeNQUMAAhCAAAQggMRwD0AAAhCAAAQgMJAEkJiBXDYGDQEIQAACEIAAEsM9AAEIQAACEIDAQBJAYgZy2Rg0BCAAAQhAAAJtScy166+ublw4u35hZe3cUnOVr4EjsLJ27uz6+dWNzWvXX23/pn/gmeQf/9vtsTt33vHh7Ztu5au6BN7x4e2fv3Pnl+/aeeCZ9peXmhCAAAT2nsClVv/Fh9haYjYuXDqzdu7CxcvxhiitPoHNS5fPrJ3fuHCpnaH+XmP77R/cvunWHfRlcAjs/PQHt3+vsd3O+lIHAhCAQBUItHKYFhtWC4m5dv3VM2vnb9x4rQpTZQzdE7hx47Uza+daxmMeeCb56dRg+Bo8Am//4DbxmO7/pdACBCDQHwLlSszqxuaFiy08qD/zpJdeEbhw8fLqxoV4a798FwGYwdMXJZ07//jfEoyJ3+CUQgACVSFQrsScXT9flYkyjt4ROLveQmJ+/k4kZnAlJj3G1LubhZYgAAEIlEigXIlZWTtX4thpeo8InGm1rJzkVVGNgVSZd3yYSMwe/dOiWwhAoEMCjsQcOnTIyYm31+JMzFJzNX49pYNIoOWyDvQWzuBvuhWJGcR/l4wZAsNIwFSWQ+o/MzMOBYmJ86lnKRJTe9Gp543LrCAAgdoR0L6iBCb7rvPjM0Zi4nzqWYrEIDH1vLOZFQQgMGgEtKyEEvEJITFxPvUsRWKQmHre2cwKAhAYNAIhd9H58QkhMXE+9SxFYpCYet7ZzAoCEBg0AlpWQon4hJCYOJ96liIxQy4xA/d3MxgwBCBQVwIhd9H58W24jxKzPD2+f7oZH44sbb9mO62V1+bM1EibM2p/nH2picQMucT05S6jEwhAAAKtCWhZCSXiTfRcYlYa+8cmZvJOZyfVS1tNmo0DI6Njzld2oV1TtTU34dafmlVl6nvae7ttLk+Puw3Kaw80llV7SZJ4qql+kRj+LkFVCRh3MEkIQAAC1SUQchedHx/6nkmMHlZuOTqrKDGpSdhukemFk+kolO00TtQkbVPpiO66ZcK8ConRW/iDO/oPhM4fyT8g7vYTOVCVv/Pk9TxTpi6fsD8gWLSm6m/fdCSv/+SDeeMymnLPepLX1OMZ+kSOjBQEIACBChPQshJKxMdeisQ4sZD8paMR6dBEfGVyLk3OTAVrdiExweiOqSNxSGapeRUSo1zhnhM7t2fpnfkkUaqxM7+u7ER4ico3RSStf49qR3tJkmg12XlSK45oJK+s5AaJKT4dM+9Z0hCAAAQqSyDkLjo/PvJSJKadx0lyWLOTYyP7pybsJ1DpE5yQ7lgPgIpxFE8kJiox7rMnaVHm+F18SIwtHIXtMw20eK3invXEjbjcun37iUKmMJXL/kZsQxK2RCSmsASpI7r3La8hAAEIVJKAlpVQIj7qPZQY8awnkxUjHiOfE3kkJj4RWeqRmGB0x2iv2Tgw3lgxMoxkai2O6yh5IhJTFJoHdy5f11EZM+Ky7bONYhhGOlDAhI4kiQ7tqK59zVr9evf42mcadzBJCEAAAtUlEHIXnR8feikSk3uD2P59sRBhMPIpUjbANCczCTMS43EIRynGRvLjMqJZ2zk8vXfUphl6cVgiMcokbro11ZH0v4DB3OQ8CRIXFsMw6RmaVFNsiRHXpo0XDOamW71uhMQQiZG3I/+HAASqTkDLSigRn0DPJSbeXXulpsS0d0XrWrtuE4nJTaUNORDC4T5OEodXCgdiCmGYI9qBbInRA/C1QyTGG1Vq/S+CGhCAAAQqQCDkLjo/PsZyJMYboghqROG901aERozff+1KY7/z7qTwZIMt2HGd4mMsJEY7RHsJFU2RxpPqiD884z4bss67tH+wBolBYsL/7CmBAASqTkDLSigRn8BeS0yqCK6IiNO+9sfiBRXEvTadrbeyJzOVJ/cMb/oOKXXkRZJLR2iLjn5G5nW1OO9qlJb6YXeGxKQGUzzMKzddRz7MN2PnkArPj4qng512vDv6EGbmDElBAAIQqDCBkLvo/PjYS5MY38Zf/HzbwInauYn2TMI4DWNM0+MrRqlO+hXEORqsa/sS/hZ8NSuW12uJMd4FLQ7HZI+Twod85Rma/M3SbozHeJz04M6T+oNnxLMq57EUEuNVtIrdcQwHAhCAgJ+AlpVQwn+Zyi1NYrzPZbyZ/YnEqAkb39uLxBgXuEkkRsmHGUfJJUN9jkvOTUdWYn6z7RzsvWc9b6DoPUhMfyRGfMS2L/CZL07HqTTm6vy60nEbXAABCAw2gZC76Pz49EqTmPYiMWJw7pkYz7udA890gpEYb+/Fh0dJ4d1MRc2K8ENilMR491Ey95BA5LaNFAmrKDw8FWfUPBIT/FdZeEqbdin+rdn/vjwSE2yzx/4UgUARBCDQTwJaVkKJ+GDKkZh4n5TuNYFeP05q411L6E5/CfT8FvNIjK+PcLUOJMbza4yvL/L2gEDLh/UzUyPOOzPyj2LHRPdgxarfZchddH58CkhMnE89S5GYPYyR9KfrXd+4uYWIoMh4Y0XkyPBM600ov9wZQRZisU7NhyIxSIwDrxovVdzaDqcZY1MxdVNi0nVXt03xbRPGxSSHloCWlVAiTgaJifOpZykS0x+T2MNedn3j5haiJEY2ledHmw5UE9ub+AMjpqAgMVGW1SpMV3Zyzv/eTzHS2UnxaaVOJMZ62cmHYlRr9oymRAIhd9H58b6RmDifepYiMXuoF/3pevc3rgj+px89ICRmYiYRXrL7SEx2efbre2oz2mOQmN0v015d2fHjpLkJMxITjOLs1Xzod+8JaFkJJeJDRGLifOpZisT0xyT2sJdd3bjqcUDhXLxSGfVcIHs2VDgCbF0oK8sYjPmxT/nhmJDEOH+3pPWfZd3VbLloNwQ6lpgkSdR9hcHshnj9rwm5i86PI0Bi4nzqWYrE7KFe9Kfrnt+4gedEWcBGBFdyO+lF771trRcjoo3QR4maZKznR0linoMxz8eYl5AebgJaVkKJOB4kJs6nnqVITH9MYg976frGVb8958EV60xu2r588NRIP9K6pcQYz6Sc+E2h2WzoSEzXa1hGAx1GYmYnrffbBz7dtIyB0ubAEAi5i86PzwSJifOpZykSs4d60Z+uu7pxhZ3Yb5QVSqEPN8jWO5YY9TRKDc7zOEkVeT9XJi8ktVcEOpOY9LYx/7RL6rLme5f2ahb0WyUCWlZCifhgkZg4n3qWIjH9MYk97KWbG9f/5Egoiz6Tm7bfW4np4JxNN5Pj2u4I2BKTaqgjJfbjpPRe0kdh1FHx7kbA1XUjEHIXnR+fMBIT51PPUiRmD/WiP113deN2FImZaasrrxhFIzFtNUulfhPoUGKSxHx3mxWV6ffI6a+qBLSshBLxgSMxcT71LEVi+mMSe9hLtzeuJy5SOLwiXSc/NJMfdrECNmIoQmLyCsb7jwrNdjt0rocABAaJQMhddH58Mi0kZu3c5lJzla+aEVg7txm/Ld71Z/wlgQEm8K4/246vL6UQgAAEKkJAy0ooER9nC4lp+St7vHVKq0mg5bK2rFDNeTEqSYDl406AAAQGhUDIXXR+fCJITJxPPUtbbnItK9STS11mxfLVZSWZBwTqT0DLSigRR4DExPnUs7TlJteyQj251GVWLF9dVpJ5QKD+BELuovPjCJCYOJ96lrbc5FpWqCeXusyK5avLSjIPCNSfgJaVUCKOAImJ86lnactNrmWFenKpy6xYvrqsJPOAQP0JhNxF58cRIDFxPvUsbbnJtaxQTy51mRXLV5eVZB4QqD8BLSuhRBwBEhPnU8/Slptcywr15FKXWbF8dVlJ5gGB+hMIuYvOjyNAYuJ86lnacpNrWaGeXOoyK5avLivJPCBQfwJaVkKJOAIkJs6nnqUtN7mWFerJpS6zYvnqspLMAwL1JxByF50fR4DExPnUs7TlJteyQj251GVWLF9dVpJ5QKD+BLSshBJxBEhMnE89S1tuci0r1JNLXWbVcvlq9mc0mA4EIDC4BELuovPjP5j7JjErjf29/xOms5O9bzPjpf5Ya7NxoPjX7OJMW5Taf6q+ReVyitvZ5MrpmVb7QaDl+vZjEPQBAQhAoA0CWlZCiXgbJUlMUVmKOdbAoq4wN1H4S7lSLDwS4/nru9nfzp2YsXpMkrmJ0QON5UQk8j+lm7XZjsSoOk678uXsZOFv9u6fbiZJYkpM+neA86697ZSR2XKTa1mhjFHRZq8IsHy9Ikk7EIBA2QRC7qLz4wOoiMRITWl3O9fG45EY/3SLCrXS2C8NZvcSIzWl4Eb+ESTaeEyJSZJm48DI5FzgmrKyW25yLSu4IzPc0QSSzk4JaCBfr0LapGF+npshLZUiaHTf9j1gXFP3ZMfLV3cgzA8CEKgsAS0roUR85CVJTCol9lOYokZkA5P73MSM2M7dq/yDn53MGm97Ayv0bpnE3IQRDmkrEiP37Mm5VE1GPTurZ9wzU9kGbHXtKpTnwhKyWm5yLSs4g5ptiCBTmqvjWyKt/SwFpXxFo5BxKQXf9Lk07fhKEXUax0rDXaYeOQMbzpedLt9wUmLWEIBAFQiE3EXnxwdZisSI3WjKNIMkSTVCbDnZTibdZaRgLaF8c3fU7qIT+STVxqYDADphbnX2hW1LjNxHi9YSyhehhUzmtLvohBq0PRiVW+b3lptcywrh0RV8UVVV6ulWUNM37ScRN4ySHtFCevl+02yy+upy1Q3fk6SL5QMfBCAAgb4S0LISSsRH03OJEbIif4cWW7tSB3frig/LV5pvcnrf0k8fVC/ixInzG7ynrZXGfvNphXvmJm1Ne0lBszzthbPUzm0chdGapaMUBa0Jt9ebkpabXMsKwXHop2aFGmrV3DtBIcrXV1xqV5PBGzOEo9pXzarXfEdiuAcgAIHBIRByF50fn0pvJab4FCnNEYZh70nxQflLnU0ureTZwHz7XKE9K/Sy+4O9hXaLGWqHNkqKylLMMaqXkWzpKC0rFEalRDBkkKkUZuJoPSoSsqiPaefHg4TqKTdVS+9bXM89UBjcsGV0vnzDRoj5QgACVSGgZSWUiA+0txIT6cuWGCPOoR/3FBLiaUK45sRMQGLUSVK3QR35SM9tOJGY/GW2KaqIgj5EbDwRK7ztyOhR7MfpZN3eZZ3JOevdSRJYHSRGLb1YLyUfKjM1EvfZUMZn//Rs/iZ2g9vknLIT485BYhTR+HckJs6HUghAoDoEQu6i8+NDLUti9IMetZfnluAdkOEK3nJ/ptrn/KXhNouPk/LhhSWm0IsSnUJBNKOoLMWcaAPdF7bc5FpWiIxBnIjS77cSXhIKz4hWAouYvX3Mag2JiXA3irpZPqMZkhCAAARKJ6BlJZSIj6AMiUn3LfutSeJEiP27uDOssHDIiuY7ovNLA/tfViHSpn2hehSiAirZmRix9UYayd81nY/ISvmvLSiLPRirhZJetNzkWlaIDMzQDt+d4FyZRm5yg8wLM19xl0Y4sRvUcQM/eStDmupm+YYUGdOGAAT2iEDIXXR+fFwlSEwgPuE5HWIMzb/f5xX8EpOXJ9ZRXBX+KT7TUftfwSSspmRrJUmM25M68OHml/i65SbXsoI9uLlGY0Xl6FNQYkW8MZiZKaUdluU0G1Piswfl+7R9b5wmEqMox793uHzxxiiFAAQgUCIBLSuhRLzvEiRGvJu6P5GY+Nyipc6xmEJdpWIxu1J1ChdnGbFr1TVG3EJllf+95SbXsoIzxnQWWRxLaWL2GTC2R2bHksQzJlHfvk/yuIuyHLsfJMbmEXrV6fKF2jHy5ZL5YmZGJZkUN4NxGxQqqAyx3PlJNZXt+952m76LyYMABCpMIOQuOj8+9jIkJu2x12di8m1PbZZqd2zvh6CHQnraNPxDWQlKTERUHU/jIsvY2tVos51e9RsfQ6jdrvNbbnItK3Q9BBookUDXyyf+uVlRNFdiCv/A0ztcKqkrHOKNZs4/W1HTkRj/v3F/m/KjrtXzX6dxvwGXyJumIQCB3RPQshJKxJsuS2LivVK6twRabnItK+zt+Ok9TqDr5WstMWoAQkQs3ZEfvR2OxIj3r/kkRjWZvnlwLH+zvch2xUjXdRJCmJAYh0rvXoqlSd3RWN9cUo1Ms8tIhVa/B5rNkK4rgZC76Pz4xJGYOJ96lrbc5FpWqCeXusyq6+VrW2Ky/UlGFvUOZ29yDlUkxgEyMC/T9VWCqI7Bpaup3CW9GVSMWU8qWEEF3mwD1teRGB4CWlZCiTgKJCbOp56lLTe5lhXqyaUus+p6+aSOmBuS3HLMnOz8tXyUIx/6SH7eqEmeKbwnFokRlkMkpmo3o/+dGdY7JHxvvwhUSO8H+bfnkJiqrXTfxxNyF50fHxESE+dTz9KWm1zLCvXkUpdZdbt8UiP0b9gpFldihJSk52DSX81zL0mr5r5i8MwzRWXxC70RuTFOtqmWhTBlI5FHytRv/EazbjJv3C3hdXcEQm+iNPJ95+7Nv3mX3ieOsvA4qbtVqcfVWlZCifg0kZg4n3qWttzkWlaoJ5e6zKq75ZPPkqYm9psHUxyJKYZqRI7YonJfMXj6MsUlhr6I6rnZqCcXabbvctm6NTApQOaFxhBIdkEgtcmpWeGIIvZmxuTUkjmCkvcWroDE5JSGNxVyF50fR4PExPnUs7TlJteyQj251GVW3Sxf7gHpvqWDH5YrdMAp3/acN+iNjTemiwd45Zuexhtz4g935DtlJxKjx9zBMKnagoAMiSnjTJdDKku6vmqZrBtGtRevgMQoTsP8XctKKBGHg8TE+dSztOUm17JCPbnUZVa7XT5pKvnHbRvqEJCYoKO0YxJuJCZ723a2U4pS9cu9MRJnkQIDc2rxsksCMhKTN5I9RXI+bbz4gRQtKiAxOdLhTYXcRefH0SAxcT71LG25yS2fWXtze7uek6/7rN7c3l4+s7abWS7PNSbFcUvjYmUPAVcQEuM8vlGXGK2IaubhX1FmS4z9u76oIDoNP6LK6+hggNEnyZ4SMM6+pO3KDwtNF8hc/XTpVbRG9N6qAhLT00Ua0Ma0rIQS8XkhMXE+9SxtKTEb5y9uXb1Wz8nXfVZbV69tnL/Y61mWITEdjNESI6k7gU+6Ux98104oqIMBUNUUFJ1OEypalv4tuew92OndIp01UEHhRGIUiWH+HnIXnR+Hg8TE+dSztKXEXH/1xukz62+88WY951/fWd248drpM+vXX73R6ylWSWJ6PTfaa5NA/jHNWlzsj05WUZlcYtSh7OxElKqgOkRiFIlh/q5lJZSIw0Fi4nzqWdpSYpIkWT9/8fSZ9a2r13iuNBA3wZvb21tXr50+s77e+zCM5y3WGZM2z8QEq43lv8dHKae/0OenjKNVKYQABAaKQMhddH58Nq0lZqm5ylf9CMRvC1l6/dUbG+cvLp9Zq9/06zej5TNrG+cvlhCDaedOoQ4EIACBXRLQshJKxNttLTHx6ykdRALtRGIGcV6MGQIQgAAEBotAyF10fnw6SEycTz1LkZh6riuzggAEIDBoBLSshBLxCSExcT71LEVi6rmuzAoCEIDAoBEIuYvOj08IiYnzqWcpElPPdWVWEIAABAaNgJaVUCI+ISQmzqeepUhMPdeVWUEAAhAYNAIhd9H58QkhMXE+9SxFYuq5rswKAhCAwKAR0LISSsQnhMTE+dSzFImp57oyKwhAAAKDRiDkLjo/PiEkJs6nnqVITD3XlVlBAAIQGDQCWlZCifiEkJg4n3qWIjH1XFdmBQEIQGDQCITcRefHJ4TExPnUsxSJqee6MisIQAACg0ZAy0ooEZ8QEhPnU89SJKae69r2rOr3VxeYEQQgMKAEQu6i8+M/2AZbYmYnx9w/ixqfLqWCABLDjQABCEAAAlUgoGUllIgPsiSJSf8U+8io8WX86XbvgJqNA+ONFW9RksxNmE2JtKzskZjl6fFCZTkSdEfjRWI0ChIQgAAEILCHBELuovPjYytDYlLncIyk2TgwMjo1GxyL1JRIBetKbTweibEq6hepVCExGgcSo1GQgAAEIACBPSSgZSWUiI+tBIlZnh73xF1WGvsPNJY9gxF+kxqGTDj247kgSWYnM0lCYrx8WmYiMS0RUQECEIAABPpAIOQuOj8+hhIkRjz9cVykGImRyjLij9mkz6GcFsRDpUyDtLvoRD7JmSnrMZbxaIlIjKaExGgUJCAAAQhAYA8JaFkJJeJjK0NikiTp+ExMfJSidG5i1CMx7nmXmakRTxyojeaHqQoSM0yrzVwhAAEIVJdAyF10fnzoJUlMvNPdleYSo6/3R2KQGA0okEBiAsZRHgQAACAASURBVGDIhgAEIACBvhLQshJKxEezRxITfg+R8TBIxF3CNSdm0sMx7kOi8OOkkcm5OIvhKUVihmetmSkEIACBKhMIuYvOjw++pxITFg5XTQqD0m84KpTEMjwSY1TfXZtGA7VNIjG1XVomBgEIQGCgCGhZCSXis+mpxBS6al8jWtX0v7kJiSkgbysDiWkLE5UgAAEIQKBkAiF30fnx/gdbYqy5dREHstoZghdIzBAsMlOEAAQgMAAEtKyEEvE51Ehi4hOl1CCAxBgwSPaYgPj0BP+HQtk9iY+4bO+kWttt2j3wCgIQqDyBkLvo/PgMBkhijD9iYHz6C8d14wvsLUVivFjITMQnSRon2Ox/dIZwzE7aRcYfA3GFw3fWXnwKlCMxhc9liLSZZJ+N6R2qe9ifdYUABCpMQMtKKBEfe7kSE++b0r0igMTsFfkB6jf0cZT2FISI2B9q4EqMfUEiHvv6JEbXc+QmzW/Rpr5UCBMSo3n0OiGWJpVLGWnzeGfhQ0r1ENJrjVLd1Bi/iGpGw5kIuYvOj2NBYuJ86lmKxNRzXXs1K3W8LLWBLI4SeDyUlcq/emZsS+pzKT0jQmI8UAYiK11fJYhzDc/f652bCP+BPOnESmLMP2aXplX+QHBgkD0moGUllIj3h8TE+dSzFImp57p2PSsdfRF7lfg9W0ZZ1CMhe7PJrcXM90ZN8kzRlKgvLjceUWXDlwpl5+eXx+coGlcbbbwqpZ0R0H+xLnRZ9B2m6UeVjmtZcT5X3f/n9kL9kF83AiF30fnxCSMxcT71LEVi6rmuPZ6VITGFli3dyb0krecVjjwz94zcgcwHCqplEd1RMSFx9iUQDTLHljdu5pLunoDnA9PtRmNhGClAuQYVJSYcwrF74VUNCWhZCSXic0Zi4nzqWYrE1HNdu5yVZQyec7uGSUj/kE+RZK8iR4Rtcl8xxuPL9EZicrMxAyq+y2XrwrTUFigFyLzQGALJLgik98bUrHBEcRuYS582GwvDKGXJJUb8kWC9TOKQuNtgF2Pl0gEjEHIXnR+fDxIT51PPUiSmnutawVnl255rReON6YlR91CnfNPTeGOusX9sRKlJKLojpluUmDYCNhUEVfEh2c/4Ulm0TnOHwzDSfsTsDIlJ5Plu+eayiZnw5RXHwvB6QUDLSigR7wSJifOpZykSU8917dms8nCI3GZMn7A6CTpKOybhRmKyt21np2FEqdop24zEWGPjRQ8JGC4iWrWfLs1MmQ8EjW5TxTQjLubZqbwaZ2JyFsOYCrmLzo9DQWLifOpZisTUc117Miv7d27ZpNALn5f4zqB4hENUK2xgtsR4+s0P5XjazCZrRWJ6AoBGfARsa0mfB+UPgIJ//sXruEpMdS9WhEbnkhgaAlpWQok4CSQmzqeepUhMPde1F7MSupD/9pw16beQ7A3Y+ldtWdkjHKHL2x6w1abUHfMTLz1pn3K13R0ViwTSJVBvGTPTiS004sLULAvOmhiystKYnG7KPtJ7I/ehYr/k1J5AyF10fpwAEhPnU89SJKae69qTWUlFsH5dltEOnxYIO+m3xPRkmjTSOYHsed/omHUgxvMwqKXE6M8fsk4+dT4irqgDAS0roUR8kkhMnE89S5GYeq5rz2bV6zMxwnXU8Rr7hK9lS8EJWJGYYC0KIACBwSMQchedH59SC4l550dev+nWbb5qRuCdH3k9fltQCgEIQAACEOgDAS0roUR8DC0kpmabN9PRBOK3BaUQgAAEIACBPhAIuYvOj48BiRnSOFP8tqAUAhCAAAQg0AcCWlZCifgYkBgkJn6HUAoBCEAAAhAoi0DIXXR+vGMkBomJ3yGUQgACEIAABMoioGUllIh3jMQgMfE7hFIIQAACEIBAWQRC7qLz4x0jMUhM/A6hFAIQgAAEIFAWAS0roUS8YyQGiYnfIZRCAAIQgAAEyiIQchedH+8YiUFi4ncIpRCAAAQgAIGyCGhZCSXiHSMxSEz8DqEUAhCAAAQgUBaBkLvo/HjHSAwSE79DKIUABCAAAQiURUDLSigR7xiJQWLidwilNSSw1FzlCwIQgEAVCITcRefHfwQPtsTcs57MHxlSC9F/QGB3ifhtQSkEIAABCECgDwS0rIQS8TGUJTG3n7D6vXxiJ77X3n4iCdfZmbcaS1/Iyh6JeXDncqGyzEB3zCUIQCIbAhCAAAQg0D8CIXfR+fGhlCExO09eT5LrO7fnf/66mOOETzJNuSe/xKlgvdTG45EYfwvpAJAYJCb+j4FSCEAAAhDoMwEtK6FEfDwlSMwRx2CkfwQ1QsZs5o9sy0Q4HpN7zD3r4UgMEuMnkNOTKhO/LSiFAAQgAAEI9IFAyF10fnwMvZeY1EXWPQ+PtHnITVQ/b3KsJZR/061ptObJB9PNWAdgdCKPMRwJzpdITE7p1u0gJgogAAEIQAAC/SKgZSWUiA+k9xJzU4eRGHNnjab9EiOnlwuKv3c3DhHtaCgqx28LSiEAAQhAAAJ9IBByF50fH0MJEnNr8QRMMWcXopBLjFYQfyTGOo6zi46G4pL4bUEpBCAAAQhAoA8EtKyEEvExlCExqQTop0Kye+eZ0U3h9xCZw00fHoVrzh/JnytprUnjQKH/fA+58gvbO0pSm/ohSORDAAIQgAAE+kYg5C46Pz6SsiRGbvb6bUQt9/72a5pNeSIxhovsrk2z/Rqn47cFpRCAAAQgAIE+ENCyEkrExzAoEpM+kJKnek2xQGJMGh2l47cFpRCAAAQgAIE+EAi5i86Pj6GnEhN+9GMOougi8vGT+8jJiKncJM7ZeC/Md+4ues8bsTqt8+EYc0VIQwACEIAABPaEgJaVUCI+qp5KTBcG0OrRjz8SM4Ty0aspx28LSiHgEGg2DoyMHmgsO9klv1yeHh8dG5mcS2amRkbHJmZK7o7mIQCBvhMIuYvOj49okCTGPxOO6+7KHf0wyR1uArOTYyOjha/JuSRJPBIjDaNYv2gbQkE8Lds1Re9Ts+kSzE2Mjo3sn24iMcN9QzL7YSCgZSWUiEOoisT0KsBAO20SiN8WlELAIeCRGKeGeNlmtbRuIbiCxPiIVi5PLLF0zSRJVhr7tfXqTGvMor6s0/dInjUQXlSUQMhddH583EhMnQ++RIQmfltQOrQEcgsRUZDxxkpHm1B+eUuCSExLRFWsIIJko8pXZqb0M7506fdPN50xz0zlmemKqwudarwcYgJaVkKJOBskBomJ3yGUDheB3EKUxMj55/lRHm1W8z6fIhITRVuJQmEqB8b9LjI34Z6aSuM02nKSJJmdtF5WYkoMYq8JhNxF58cHiMQgMfE7hNIhI6ADJEJiJmbkaZh2Hwd0LTH62YRxJkYduzG3wyFblWpMN70lpmbl/z0jmptw5cYjMeONFc+lZA0xAS0roUScDRKDxMTvEEqHh4B8UmBohGEPlp0Iv/Ee1DUyxQGI9muKX9PV4wYO9lbwrlNGEpCY9A4RZ8DNoYvIjXrGJG4GJMbkQzpJkpC76Pw4JSQGiYnfIZRCICVgSYyJJN+ZxBnP4qkIs7J+25GVmb3gcZKPSlXyZifHMv/wSUy6doGlF8sqzHj/9GzjABJTlRWtzDi0rIQS8ZG2kJh3fHhI9/jIkdgaFL3jw9vx24LSoSdQjMoUjmTKB0+N9KNcxM6ExNT3rjHP5zoSk1ts6+lzJqY1o+GrEXIXnR9H0kJixu7cqcGezRQcAmN37sRvC0qHmoCwE/vRgBAU59hmKRJjPMzic2KqchfK1TeWRjxnTI8opQbT9hunHfupyuwYxx4T0LISSsTH10Ji/uHHt99yKx5Tq3DUW27d+UcfR2Li/y6GutT/5Egoi/UsoNcS44EufsvnE3s9ZPYwy3CRpv/xUCo92a2SvwfbyNzDwdN19QiE3EXnx4fcQmIeeT55+wdrtYU7MYkhfPnTH9x+5Pn4XUHpcBPoKBLT2Z8CUCd22wSMxLQJqp/VDInJz7sYZ8DlJ+Ap382jOCqnn2OlrwEgoGUllIjPoYXEJEnyO/9++2c+RDymDib3llt3fvpD27/z7zkQE/9HQal8TOA8PvCfiTHejpTXD29XSAx3FwQgYBEIuYvOt2oXXrSWmCRJHnk++Sd/sTN25w7nfAc0cvOOD2+P3bnzK3cRgyn8CyADAhCAAAT2joCWlVAiPrS2JCbeBKUQgAAEIAABCEBgFwRC7qLz420iMXE+lEIAAhCAAAQgUBYBLSuhRLxjJCbOh1IIQAACEIAABMoiEHIXnR/vGImJ86EUAhCAAAQgAIGyCGhZCSXiHSMxcT6UQgACEIAABCBQFoGQu+j8eMdITJwPpRCAAAQgAAEIlEVAy0ooEe8YiYnzoRQCEIAABCAAgbIIhNxF58c7RmLifCiFAAQgAAEIQKAsAlpWQol4x0hMnA+lEIAABCAAAQiURSDkLjo/3jESE+dDKQQgAAEIQAACZRHQshJKxDtGYuJ8KIVADQksNVf5ggAEIFAFAiF30fnxH8FITJwPpRCAAAQgAAEIlEVAy0ooEe8YiYnzoRQCEIAABCAAgbIIhNxF58c7RmLifCiFAAQgAAEIQKAsAlpWQol4x0hMnA+lEIAABCAAAQiURSDkLjo/3jESE+dDKQQgAAEIQAACZRHQshJKxDtGYuJ8KIUABCAAAQhAoCwCIXfR+fGOkZg4H0ohAAEIQAACECiLgJaVUCLeMRIT50MpBCAAAQhAwCXw+cM77/zI9k231vnrnR/Z/vzhHXfmvX4dchedH+8QiYnzoRQCEIAABCBgEfj84Z2b379Tb4ORs7v5/Ttle4yWlVDCQl94gcQUkJABAQhAAAIQCBOofQzG9LN3fmQ7TKIHJSF30fnxPpCYOB9KIQABCEAAAhYBc48fhrQ1+V6/0LISSsQ7RGLifCiFAAQ6IbA8PT46Nt5YaeeaZuPAyOiBxnI7dakDgQoRGAZxMedYKvqQu+j8eO9ITJwPpRAYMgIzUyOjY96viZkiirmJ0bGRybm8oCAxwlTG1LUrjf1jI/unm+KCqMRYNfP2SUGgAgTMDX4Y0qUi17ISSsR7R2LifCiFAASSsG30VGKEAHn9SWQSs+FWrAqBYRAXc46lcg+5i86P947ExPlQCoEhJWCKi5m2cfRUYuymeQWByhIwN/hhSJe6EFpWQol470hMnA+lEBhSAqa4mGkLh4ydqMdDaVHgcVIn8RUhRtYjralZq1deQGCPCYTE5V0f3f6tT++Evt710UH9UJlScYfcRefHe0di4nwohcCQEgiKi8kjO0BjSIbxSEge7xXttH0mpuBASZLMTo5x/tekvkdpcUopk0u14sZyj9gHuuW6S3lVJ6LEwPNLrOeDYpXFYSzjiJXZiHUPBBpJ8hNdaoQGLNFanm82bo3QuCSUDElMqL7M//ZJ56NlduaNC+aPbN90JLl8YuemW3fmr+/cnn2MnlUnrS6Kbj8ha2orKlRTLd9T+Dg+99ojSbLuDEw3myVUY6V817ISSsR7RWLifCiFwNAQyDcG/8HewsGUfFfL344kGslfJvI8TdsSIzchYxtTEqNbGJrlqNZE07XOl3V5uiFPeS9Pj+dxuDSEpmxgbkIvYnpLKF8x0+laZ0qRGkxW3+podtLoVAMJNCIMJmswFZR8YPJKGeHTEhMYoe4lmuihxFiS4ZGYTCNuP5GklqOMxBURlX/TrduhottPeKYkzQmJ8aAhCwIQqDeB7Ffnyen0DUdqN2rrcZLaXcSvwmp7U7Dy38jNJ0p6R1TV+N5XAqk36O3f6NmSmDRmpiTGqCNiaTosl5tQkvqKqD83YTY+M6X9w9tgs3HA14jT+9yENicxFqE1B/yzMEZojTv8QsuEkwhfkZZ4IzFtSsw961a8JGQqNz24c/l6cjlJnnwwNx5nkO5LIjHxZaMUAhAYNAItT6WoGEymI8bvuOlu5/vt2YfAKzGqouhC6Y7K5PteEXCdIBuHKTEh0RGKIGRFW0t2daYjhrWIgtxpfBITaCRxR2hdK8fWeoTt4nU9QAVC4tfvXmKOJIlQE208OqxiykqamT2H2nnyuvO8STqN9dQpaw2JiS8bpRCAwCAREBaifxUWI8+UJf8le2Z6fL+O/8vJyTpTs+Jy4xdlNXXxnChvQWQjMYrOIHz3PemTgTd9attZ32xWuTqsNPZbgbf0BpicSx8DWZE2rSPZjWcfrAk0kkqMFSsyHkUp78lHYgMP5du1zFflSUzWS34mZjsNriRJKhxplCU7K+NEYtI4TeJaSyY6+XmX1Gxy6UnFSLSGxJhLSxoCEBhoAkIsCg8FQmpSnGqopk9irKvFhXo7DCSsLdC6nBf9IJBZRS6pZiRGPB7Ki+R40nXXqxbwj6DEGFMSt4cK5+gG0wqZCYUlJreZtBFLdNLrrREaPUaT5UmMe7D3SDoOHYDRQuNIjDmecJEtMVqJkJjoWlMIAQgMFAEpE9ZznGzr8v+e7UxOXO7uZNlWUXAj51peDgaB9H7IltiSGPEG+/zOEbdN/jJJ8kMw2TxbPk4yeaijMGmz5q2o8nX8Jrsoe5xkPqtyJaY4QrPDWNqUBjPtvebbJ3fuO5J+/dH9zpuA0oc7uaDc6n13kv9oS9hUggd7xTh5nORdIjIhAIFaEWh5JiY826jEeOMrHuMJN09JJQhoMwhKjCE6xojzoEiaqXTEcQvduHGhjLjIW8XfiG4tu0o6jdAU84S4SKuIjlIxu6N2XpniYqa91/7Wp2MSk19yfef28LuT5AMjXVkEbDr2GzlUV4CIxGisJCAAAQhAoIYElqfHjWMr+TuiLYkxxMXKN3ikvqIeBhmykjdouchcQ/8lUfNCM2004r7F2hhwNgLTlkIjNAYbSZriYqaLl5zeTP7o/p0kSU5vJr/1aScSU7CQgMTcs+4575J7jHjkVOxa54j3ZqfPkjz/CXPiLdYeMmRBAAIQgEBtCMjDUlksTftBqgX5pwrlQTV5Ctgoyo/u5kXm8ZQ8ZJI3oj5kSHSq1EcC9TeSfShRWt96jKUWwZSYvAU1fj0pVT3y3RQXM128REpMWwYTfpxUlJhijjmMztJEYorLRg4EIAABCECgrgRClvBH9+/8349ZX390/867Prrd7h8cCERibrp1u/3HSaGxBfORmLrepswLAhCAAAQgUCQQFAL1gTE1q1Ak0MOc0F8b0PnxvvizA3E+lEIAAhCAAAQsAjVzlJbTsSbf6xdaVkKJeIdITJwPpRCAAAQgAAGLQMtdv2YVrMn3+kXIXXR+vEMkJs6HUghAAAIQgIBFoGaO0nI61uR7/ULLSigR7xCJifOhFAIQgAAEIGAReOdHCu+OrulpmJtu3X7nR7atyff6RchddH68QyQmzodSCEAAAhCAgEXg84d3bn5/qw99qYXW3Pz+nc8fTj/nprz/tKyEEvGukZg4H0ohAAEIQAACLoHPH96pfTzmnR/ZLttgkiQJuYvOd9Hbr5EYmwevIAABCEAAAhDoFwEtK6FEfCBITJwPpRCAAAQgAAEIlEUg5C46P94xEhPnQykEIAABCEAAAmUR0LISSsQ7RmLifCiFAAQgAAEIQKAsAiF30fnxjpGYOB9KIQABCEAAAhAoi4CWlVAi3jESE+dDKQQgAAEIQAACZREIuYvOj3eMxMT5UAoBCEAAAhCAQFkEtKyEEvGOkZg4H0ohUEMCS81VviAAAQhUgYB0l0O+/2RR/EcwEhPnQykEIAABCEAAAmURQGLKIku7EIAABCAAAQiUSgCJKRUvjUMAAhCAAAQgUBYBJKYssrQLAQhAAAIQgECpBJCYUvHSOAQgAAEIQAACZRFAYsoiS7sQgAAEIAABCJRKAIkpFS+NQwACEIAABCBQFgEkpiyytAsBCEAAAhCAQKkEkJhS8dI4BCAAAQhAAAJlEUBiyiJLuxCAAAQgAAEIlEoAiSkVL41DAAJ7QmClsX9sZP90c086p1MIQKBfBJCYfpGmHwgMLwGhFKNTs20QaDYOjIweaCyHqy5Pj4+OjUzOJTNTI6NjEzO65tzE6NhI8Kud3kPq48mfnRxrMc5sXJ5r9YhJQAACXRJAYroEyOUQgIBDoLhtixxDYoQBuMIx3lhJksSRGLfm5FwSlBhnGKGXcjBu76kVJcWRy0Y8+bbEdNim0C+vbxlO5hu/uFCC0sWCmClzuiQ4eKcGLyEwuASQmMFdO0YOgWoSKG75co8vxkJE7MR+6OOTGHmhqNxKYlzpEYEZZ9dX1ALjzMcTCu2k47ElRjXp0aBiL4mMITmjauUioos2JUZ6XjAoFQ106amQgMAgEEBiBmGVGCMEBolAcdsOSEwWkDAcJdt3811WuIJRIS4xokE3mOHNTHkGxplLTAz6HkrMbkI4salQBoEBJoDEDPDiMXQIVJKADGBI85AD9EpMHucwYxLtRmJUmMFRFm8kRjwqKqISA7CUpag18vFW/uxpYsbMyWVLtd5WmzISsxsXaTMSk40mJ6z6MhdFDZnvEBhkAkjMIK8eY4dABQlkzzLMDd6VGPnoJDuWa2/M7UqM52CvycKjI2Zxmg6N09QaO4pjjs0fiWmnTXccnby2WckrJUxH5uTsTDtMgo/AOhkAdSFQMQJITMUWhOFAYLAJSHuYmtgv3kCUzcWRGBkhMKMCeQDDFAW17+aBkDSmIkXBkZjMHoyaKlSjghDum4l0zMbY6Qvq45OYickDqk1T1NKptm6z83Fat4MYj+rdmqwrMbJmelo5/08Oz62Zl5OCwOARQGIGb80YMQQqSyCPCqS7td7jHYnpbvheiem0SdWIHVApSEz2bqlcF7QB2BeK7ttu0xisp0ejtKukNipLemyt6aoDLoZABQggMRVYBIYAgToQkKYypgMbRkwlIDHBuIK2Hx8X5QqFz4nJ3vVj7dkqHqPlQ7SYB36y473Z27+7UYpO2gxOPPxOaTlrNR3vHAOfW9PNpHz8d5MnY2/CBc2ndbtpimsgYBFAYiwcvIAABHZJYHmuMXnAOUKrPCYmMbZeuJ8Tkw1G7Ppajzobobg270U7UN6K3uZ1Ii8zB2Crg/E4bHdtOp0443RK3Zfhoe6+pnslryFQfQJITPXXiBFCYNAJ9EtidhHhsND6zSB/RmZU9jxOMkqNpK/NbsfpfX+46nP3MRvVAt8hMDgEkJjBWStGCoFBJdBXicmDLh3j8gmHOhbjNNu9xDgNdjhY/1A7bITqEBh4AkjMwC8hE4BA5QnEJMZ+RiOP0BbOxIRDF9YzpnA15zlXgFjYDDwtG4+TAs2JbF+bntbU2eF2D976mo0NgzII1JMAElPPdWVWEIAABCAAgdoTQGJqv8RMEAIQgAAEIFBPAkhMPdeVWUEAAhCAAARqTwCJqf0SM0EIQAACEIBAPQkgMfVcV2YFAQhAAAIQqD0BJKb2S8wEIQABCEAAAvUkgMTUc12ZFQQgAAEIQKD2BJCY2i8xE4QABCAAAQjUkwASU891ZVYQgAAEIACB2hNAYmq/xEwQAhCAAAQgUE8CSEw915VZQQACEIAABGpPAImp/RIzQQj0mMBSc5UvCEAAAlUggMT0+Oc7zUEAAhCAAAQg0B8CSEx/ONMLBCAAAQhAAAI9JoDE9BgozUEAAhCAAAQg0B8CSEx/ONMLBCAAAQhAAAI9JoDE9BgozUEAAhCAAAQg0B8CSEx/ONMLBCAAAQhAAAI9JoDE9BgozUEAAhCAAAQg0B8CSEx/ONMLBCAAAQhAAAI9JoDE9BgozUEAAhCAAAQg0B8CSEx/ONMLBCAAAQhAAAI9JoDE9BgozUEAAhUgsNLYPzayf7pZgaEwBAhAoDwCSEx5bGkZAhCQBIRSjE7NtsGj2TgwMnqgsRyuujw9Pjo2MjmXzEyNjI5NzOiacxOjYyPBr3Z6Fy1MzukWw4mezijcDSUQgECcABIT50MpBCDQKYFiFMTd8mcnPbYx3lhJksSRGLfm5FwSlJi2xynsx9Ed0XtBYjw1pQy5MxLD1kZlEXBmZI/SqmkX8QoCEGhNAIlpzYgaEIBAJwSKG7O75avWhDTYD32cLV9IjPQGZRhRiXGlRwRmpB6pTgvfRYN+ibHrGoNxZ9SBxMjxByNG0SiUPZ7BepUvTVuxrsGaHKPdMwJIzJ6hp2MI1JRA2xKTxTkMR8m29nwjN7yhDYlxHzAJwN5ME32fJcbsemjS6Tpm7pLeHi20cmiwMNHuCSAx3TOkBQhAwCQgbMM6AePGLURtWS19rmRuae1GYlQkwzgTk7aa/7qvKqSPjXy/+ucdCcvpSSTGeURlvMy1TJHKp6+qtXNqR109YN/nJsz7YWaKM9cDtoAVHi4SU+HFYWgQGEQC2eMSc9t2JUY+fMmO5eYOkc42dwsx984iMTmuYjQoL5OpvKM8VGOIhfQeUaQkQ57j6cWZmDz2k49KzNSElhcNfMq1FttpBn56TGAvCSAxe0mfviFQOwLSHqYm9pvxD0diiqEakSMOx+RuIdC4kZXQwd4WB02kf1iK4HQkehPDMMM2ud84C+XMSLpX2wd7pRuZHakYkhNYcnod1JczU3YwbG4i/ga0QZ0n494DAkjMHkCnSwjUlYAwA7GXp1ahpcHd8ruavvQVz1us22vVE1zJ3io13phO36RtukWHEmPFbNSBZZ8tdfDYq71ZVbsWElPt9Rno0SExA718DB4C1SEgTSU/4GJs3gGJCfqEth/f7CISE2xQx0h8DeZ5u4/E5G0UUgaHQlkiyCjdKRbXJIfHSTVZyCpOA4mp4qowJggMHoHlucbkASuMkR9wiUmM8wDFv+ULOzHP/3bAxxtN8TfolxgrvpKeF56alfJhHlaVA/L15Z9RNoHhkJjUO41jy67TdLCYVIWAQwCJcYDwEgIQ6DmBfkmMcIiCc6RPixxVkp/2u0srSvF0MCOLpgwjme+c8qSjgSiruYF5kZ5typ7Tpejc5RiYeTDQyhFAYiq3JAwIArUj0MGW749bIY+17AAAIABJREFU+AMnBU6+QEihkshos0H/xV1ITLDB2hfIeyAVyi7csfaUmGDHBJCYjpFxAQQg0CGBmMT4AieFUEQ4xGLtiOFqKgygBh6p2dYJlU5nxM6tyPMdAj0lgMT0FCeNQQACEIAABCDQLwJITL9I0w8EIAABCEAAAj0lgMT0FCeNQQACEIAABCDQLwJITL9I0w8EIAABCEAAAj0lgMT0FCeNQQACEIAABCDQLwJITL9I0w8EIAABCEAAAj0lgMT0FCeNQQACEIAABCDQLwJITL9I0w8EIAABCEAAAj0lgMT0FCeNQQACEIAABCDQLwJITL9I0w8EIAABCEAAAj0lgMT0FCeNQQACEIAABCDQLwJITL9I0w8E6kJgqbnKFwQgAIEqEEBi6rKxMA8IQAACEIDAkBFAYoZswZkuBCAAAQhAoC4EkJi6rCTzgAAEIAABCAwZASRmyBac6UIAAhCAAATqQgCJqctKMg8IQAACEIDAkBFAYoZswZkuBCAAAQhAoC4EkJi6rCTzgAAEIAABCAwZASRmyBac6UIAAhCAAATqQgCJqctKMg8IQAACEIDAkBFAYoZswZkuBCAAAQhAoC4EkJi6rCTzgAAEcgIrjf1jI/unm3kOKQhAoIYEkJgaLipTgsDgEmg2DoyMHmgsh2ewPD0+OjYyOZfMTI2Mjk3M6JpzE6NjI8GvqVldMZgIqY8nf3ZyrMU4s1481wb7pwACEOiQABLTITCqQwACYQJiaw+YxOScvs5bbbyxkiSJIzFuzcm5JCgxuvl4QlhF0XXS4YWEw5NvS0yHbQr98vqW4WS+WYgLJShdLIiZMqdLZMIzeKcGLyEwuASQmMFdO0YOgeoSkDvryOiYs+PaIxaxE/uhj09iZBBFVG4lMa70CFkJjKG4uzs5odBOOh5bYvS0nBYSvxjtxkVEF21eKD2vKGpZTjTQpadCAgKDQACJGYRVYowQGCACagdNgwpZyCGwa2alhqMUdlnhCkaFuMSIBt1ghjcz5dmecATI76HE7CaEE5gF2RAYdAJIzKCvIOOHQFUI6OiL0AhDETJZcaIyeZzDjJS0G4lRYQZHWbyRmPQAjee/YhzIGLOqrycl1WFiRj7wko/MinLWVpvK7TzP3ZzpqFGo74KkiUs9gPM+TsoJK++ROqha4zsEBp8AEjP4a8gMIFBFAh4h0MPUZpDu2fbG3K7EeA726ua9URazVKSziJEpIoUx21Ecc2z+SEw7bRYG0kGGzUpeKGG69iNG4uiOf8wddE9VCFSOABJTuSVhQBAYSALqKZL6pd8TZlBv55ERAjMqkAcwTFFIsqMnRlOhx0kd9J7R1TEbY6dvS2ImJg+oOZoClDbbus3Ox2ndDEJiVO8GFutdWuIKWdMOQcnhubpjdcALCAwYASRmwBaM4UJg2AlID2gRiWkFSTViBycKEpO9WyrXBW0A9oWiu7bbNAbn6dEo7SqpjcqSHltruuqAiyFQAQJITAUWgSFAoFYE2j6KEYwruBEOC49yhcLnxOhzxLlz6P1by4doKg/8ZMd7R2VYqBul6KTN4MS9R1vEkOWs1UkgPS874eXWzaQs8F28MG4J+81oXbTJpRBICSAx3AcQgEDvCGjDMJr0BC1kqdjLbb1wPycma0bUNJ77GK23TDq9eEaot3mdKDTq0Q7jcdju2nQ6ccbplLovw0PdfU33Sl5DoPoEkJjqrxEjhMDAEPAfMg0piG/bds7EZDMPteCAEdXs4EQWlXFUyblOvfSbgXdSQTNTbanvvja7HWf05PLuYzZqyHyHwOAQQGIGZ60YKQSqT0DuoNYjA7GLe/+SQDkS056veFH6hEMdi3Ga7V5inAa9Awpn+ocark8JBOpJAImp57oyKwjsHQHjAER2hsN48mIOKxiQKJztCNa0P3smXC3wUTHmaKLhDU/LgUk5TXo+Ui92dqe9cUaH6g6A1xCoMwEkps6ry9wgAAEIQAACNSaAxNR4cZkaBCAAAQhAoM4EkJg6ry5zgwAEIAABCNSYABJT48VlahCAAAQgAIE6E0Bi6ry6zA0CEIAABCBQYwJITI0Xl6lBAAIQgAAE6kwAianz6jI3CEAAAhCAQI0JIDE1XlymBgEIQAACEKgzASSmzqvL3CAAAQhAAAI1JoDE1HhxmRoEIAABCECgzgSQmDqvLnODAAQgAAEI1JgAElPjxWVqECiFwFJzlS8IQAACVSCAxJTyU55GIQABCEAAAhAomwASUzZh2ocABCAAAQhAoBQCSEwpWGkUAhCAAAQgAIGyCSAxZROmfQhAAAIQgAAESiGAxJSClUYhAAEIQAACECibABJTNmHahwAEIAABCECgFAJITClYaRQCEIAABCAAgbIJIDFlE6Z9CEAAAhCAAARKIYDElIKVRiEAAQhAAAIQKJsAElM2YdqHAAQgAAEIQKAUAkhMKVhpFAIQ2FMCK439YyP7p5t7Ogg6hwAEyiaAxJRNmPYhAIEOCDQbB0ZGDzSWw5csT4+Pjo1MziUzUyOjYxMzuubcxOjYSPBralZXDCZEC5NzwfK8QEjSaDttJq1nlDdLCgIQ6IwAEtMZL2pDAAIRArOTYY0w5MBbbbyxkiTulu/WnJxLghITGZddJOzH0R3Re0FiPDWluLgSI0xFG5UVB4pKjFXTHiWvIACB1gSQmNaMqAEBCHRKQG7qI6NjUk0ClwtpsB/6OFu+kBjpDcowohLjSo8IzETHkEgr8kuMPW5jMF1IjBx/MGIUjULZ4xmsV/nSGDo7WFNgtBUkgMRUcFEYEgQGmYDapNMHPVkkI7AxZ6WGo2Rbe17f8IY2JEY0aDxgEhi9mSZgMeD+SYzZ9dCk03XM3CX1vxZaOTRYmGj3BJCY7hnSAgQgkBLQ0RehEcaDkkxWnK1LSEkhUtJuJEZFMhxlyX/dVxXSx0a+X/3zjsTweiIxziMq42WuZepeyaevqrV1wkZdPljf5ybM80MzU5y5Hqz1q/JokZgqrw5jg8DgEjAkpjAJS3dyh0jr5W4hruosEpN3FOtd1so7ykM1hlhI71H6pTxjbCTbjEX7xsYsZ6SMyuo970gPL4/96KxEzLToOnmFAU651mI7zQBPjKHvPQEkZu/XgBFAoA4E1FMkY78vHvKVm7R0BTPwIHLE4Rhny3cjK6GDvR30nsF2OhK5Yhhm2Cb3G2eJupMY6UZmR4mUGH002OluwF/OTNnBsLmJ+BvQBny6DL+fBJCYftKmLwhAoGsC0lc8b7Fur2VPcCWTrfHGdPombdMtOpQYS+DUgWWfLWXKYtV3um5vNoNRC4kZjHUayFEiMQO5bAwaAhUmYDyUyQ6mmEEXY+BBn4g+VYlITLDBNiMcu4/EGLNyk16JUZWsB08qs3bfeZxUuyWtzoSQmOqsBSOBwOAT0IZhTCV42sMX5/Bv+aLmLt/S4utFvm2q0KBfYtx4SXoUxn2clE3X15d/RtkFwyEx6V1hiKzrNMa9QhICHRJAYjoERnUIQCBMQGzYhbBHSEHa3/JDLTgjEdUKzpE+LVJHbtUFbTaoqhe+dyAx1rVS8sx3TnnS0UCU1dzAvEhFNntOl6Jzl2Ng5sFAK0cAianckjAgCAwwAblJq+MgYiJyv/dtzOVITFsb5F5JzAAvbZdDl7dBKpSFAFiXLXP5UBOQEhP5f5zO8ePH98VrUAoBCAwZgRLOxIRDLNaOGK6mwgBqKSI1LQNT9d3vsUiMNxRkjdNtjdcQgMAuCUT0RRbF20Vi4nwohQAEIAABCECgLAJITFlkaRcCEIAABCAAgVIJIDGl4qVxCEAAAhCAAATKIoDElEWWdiEAAQhAAAIQKJUAElMqXhqHAAQgAAEIQKAsAkhMWWRpFwIQgAAEIACBUgkgMaXipXEIQAACEIAABMoigMSURZZ2IQABCEAAAhAolQASUypeGocABCAAAQhAoCwCSExZZGkXAhCAAAQgAIFSCSAxpeKlcQhAAAIQgAAEyiKAxJRFlnYhUFcCS81VviAAAQhUgQASU9eNhnlBAAIQgAAEak4Aian5AjM9CEAAAhCAQF0JIDF1XVnmBQEIQAACEKg5ASSm5gvM9CAAAQhAAAJ1JYDE1HVlmRcEIAABCECg5gSQmJovMNODAAQgAAEI1JUAElPXlWVeEIAABCAAgZoTQGJqvsBMDwIQgAAEIFBXAkhMXVeWeUEAAhCAAARqTgCJqfkCMz0IQAACEIBAXQkgMXVdWeYFAQhAAAIQqDkBJKbmC8z0ILCXBJanx0fHxhsryczUyOjYxEyrsej6/oorjf1jI/unm/7SUK64anRq1i0vtjY3Mdpu+83GgZHRA41lt1FeQwAC/SSAxPSTNn1BoM4EZifHRkbzr9RdtJRYEiOtIq8pr0oVR9fPOfkrZx2ZQiO6MAegJKNLiRFmI+aVzkj955EYMQCzTpIkolob9qaa5TsEINARASSmI1xUhgAEggSExNgBDy0llsToFoQfTM7p1z6JyQuTRPqE3YVZbqSNwdgSI4Zku47UqalZ2b4pRmaOuFAHk5AYA3bbyeXpcQtv2xdSEQIBAkhMAAzZEIBAhwQMb1BXxiVGxk7MXc0wDCekkbaoYi3aJFQ3xe/mgyFbYop18xzzKpFru5cTalKRHnW9Gl7RkNoYsGqktt9VRM1c7tpOlon1jwAS0z/W9ASBehPoTGIMX8n3eC09RVKqyBMCKVSWD3GUBvkkxujdcBFXYpwZmV2b6ax/ITGq0yxPjiSfYGGoQ5KRcpicSyNtSMyQLHm/ponE9Is0/UCg7gScLT+drjIP52Cv3NpHxJlfGd7Itnld32blqoBPF4wrnKdOBYmRBqMeY4kByCO6LSTGnIUYkn2w1zcqd+TGKIcxicQM46qXO2ckply+tA6B4SEQkhj9eMU0lRHz7ULyQYz8TV2+m0lRk4qT/hJf+E8WOZGPJMkeWxjBD1diXLEQvYv60n7EERnRozMjU1zMdDY0OQvjaLM78cIUhi4DiRm6JS99wkhM6YjpAAJDQsDZ8tNZ68hKLgpRGLq+v5bQkdjziMxCbLNxJSY7W6PESMpQLjFm+/awZU2tJsZzKP9wyXUJIDEuEV53SwCJ6ZYg10MAApLALiRGBkXa1oKYxOimbINJVGzGek+TqyOZ0LiPk7L3Q0mtEYKlAzxWJEY+n/LFYNqe2nDcREjMcKxzP2eJxPSTNn1BoM4EXDMYnZrVkRU7pCEoyACJdaxEikjBQjS0iMSszE6GPn2uEInJ2iu2VpSYRL2vO33GZA7Mkhg9wGDLbo0hfY3EDOnClzhtJKZEuDQNgWEnEJMYYQzqmY4CZWf2JsJhSYwO2Bgxkuxj98Yb0z36xN6iHqn5Dfl3JGbIb4ASpo/ElACVJiEAAUkgJjHSLTqKxOwOqyUx0Sa8kRj/FURi/FziuUhMnA+lnRNAYjpnxhUQgECbBGISkzZRiItYTtNmJ62qITGtCFEOgYElgMQM7NIxcAhAAAIQgMBwE0Bihnv9mT0EIAABCEBgYAkgMQO7dAwcAhCAAAQgMNwEkJjhXn9mDwEIQAACEBhYAkjMwC4dA4cABCAAAQgMNwEkZrjXn9lDAAIQgAAEBpYAEjOwS8fAIQABCEAAAsNNAIkZ7vVn9hCAAAQgAIGBJYDEDOzSMXAIQAACEIDAcBNAYoZ7/Zk9BCAAAQhAYGAJIDEDu3QMHAIQgAAEIDDcBJCY4V5/Zg+BzgksNVf5ggAEIFAFAkhM5z/CuQICEIAABCAAgQoQQGIqsAgMAQIQgAAEIACBzgkgMZ0z4woIQAACEIAABCpAAImpwCIwBAhAAAIQgAAEOieAxHTOjCsgAAEIQAACEKgAASSmAovAECAAAQhAAAIQ6JwAEtM5M66AAAQgAAEIQKACBJCYCiwCQ4AABCAAAQhAoHMCSEznzLgCAhCAAAQgAIEKEEBiKrAIDAECEIAABCAAgc4JIDGdM+MKCEAAAhCAAAQqQACJqcAiMAQI1JzA3MTo2MjkXOtZLk+Pj46NN1aiNVVrM1Mjo2MTM9G6FEIAArUmgMTUenmZHAT6SUBYxcjomPkljERphxpMs3HArJOm9083kyQpSMzs5NjI6NRseqFuRCWQGMWT7xAYWgJIzNAuPROHQMkEciNR2uHvUJQiMX44dck1BNeKtImbRBjtgcaynqy4JaQNyxtDlQipFZbsC+zNTorI3MxUIew3NzGq2s97DLUzN5F5c5IkK439uZSnI1+eHtdd55NSjctx5l3Y+Xl96eVqVuJ7s3Ega9+esig0hqF7FwVxIJn6C5IW9qznbKZ5Iz7mWd3l6XHPwNJC83eS/kdGkZhsgfgGAQj0mEDPJCbfRfL4zeRcQiSmxwtWXnMrjUkRaUt7SAUl2+rSO0Rt8+lqZlt7szGlhSbdX9W2baTTTd3dlfUu21Ji8s3Y004mE564oDAJ89qGekKaTkR5SWBS4nbVEzyQhR5z5Mqc9CzyoiSZmTaB6Im3ACIMTFU2sKuW9Uwz+TPy7Qe1SqHyuauq6fe5CbVAIpKqFtSsUmYaiSmTLm1DYPgIiF/LxA8yIRniZ6j4xVr/pHOZiFL58zH3nqyS+B1R/ujXjagEEuOSHIzX6R0ibga9iYpxpzul5/f43A/UNi9nOTPleEDeWgcSk6RuYe3NK439chsu+k06gInJgjyl48kjPfkw0vx8UrYo5PXlbNJhyH8gXonJKqXfND3RqTKnpDgROaq8gj0wObZMOOyxic4MLFmPrQYmxzjr52NMoNdJJKbXRGkPAsNNwJEYsS0J7ZCRarV75TEVM4ItJEYWyd8ghcQYkZj0ciRmsO8wtZvmG7ycj8q3Z6f3TmNbFTVspzE0IheCvCVDGnSDstRpVr/M5UnWW2nsF0LgXK4bkQpiWIssUZMyBiAKbG8wUHjbl22l/9eOVbQWB0ha21AKdwCmvdmDkZ0V6rcYWDZEX1NZUUnfkJiSwNIsBIaUQC4xOQClHSpH1An92u39TVddyfeBJ6B3R2M/FpPKfuO3J5hvwzpWkVXQ7YjXZqkI0bmWrJ9bWZtxemea4Z98D9Y2kzZvDtVwBe3cmcE4NdMr1aSMq8R483nJ51Y6GmQNT1RV9cWMjIc15pTTOjYQdan6NcC4UDWoJ57PWl1lxpCyvMDA8iuyB3B57McqKu0FElMaWhqGwFAR8O8caRBlvDHtvMW6Y4nRu4UM2xj/1z+Ihwr2oE5WrKNaMtMM0gmp/V5PLo1P6AMxhfiKtWdb27C7u9sbvH0vqcHITg3VMCRmdtI0AKOOHml688s6oUm5V5kSo6I1orkWrmAwcadpARFtmYqWXqjOx7hPmix62aSM4JDMaTEwERnSppg10o9vSEw/KNMHBIabQDmRGM7EDNRdZRxvkuN2t0lrLy8urmEV4npDC5z91d3dCxKjwx42QGsAqeukQQV3g3f6Ui0oKQlNyjUMo1ljIk5URjVufVcDM58HiQp2O/KUTB4iEp9foCZuzbQ4x7Q5d8DpoV11uTWe9EU6a/toUaFKaRlITGloaRgCQ0hA7D3GL3wSgV9iCgH/qVnxW3Lh8uzzYwr10zCP/Zv0EBIfjCmnBmNuqGLUauOXUzC2//QuKjyV0Ju3rG44jbMlF2I29pYc3IydIIrYmAs3mD3mHL7O1wlRpielE/ISQxEc5QoOT/WlOeiELDGAyAw3spXXd2ZaEDVPVMxyIDUU+T2dmuffrF2pvFdITHlsaRkCw0fALzFtc0h/zvp+IIby226YintKoBAkkKNJl1U9qTH2YCNKYY3aMCHTCQqNO1qQtmFIQ8gSilcVbuZ0ADoasTzd0J8WbU7ETBuTStVKmZmhF65PeAMesw39BvVUOLQOGukcSJ5pjkQGS6RHFmbqALemqVfA4aan4+Tr+v1KIDH9Ik0/EBgGAoWf+51NOv2xi8R0xmwAaotltQJpWgXEDSOKdOgl3Y+tylp05E4sTkTlv/oXtuTdRWKcjVx9qJ09GDuYlG722fEsPXixGp5JpfnyKFh6iZ5+0QBcVqJlIzOfeNpkPjydn0uM+qibbJBq8O5MxeMkNRF5iM33dz+coWqJySeraKiO+nNnIjH94UwvEBgOAsWfaPoQrv7BHSERlRjz52ye7u9PzMjYKdoLAnkEoqve0xvPFpGummv3YvvZU7tXdVVvj2ba1ZijFyMxUTwUQgACEIBAZQk44YHdjtM9VbPbdjq8rvAgrMPrd1F9j2a6i5G2ewkS0y4p6kEAAhCAAAQgUCkCSEylloPBQAACEIAABCDQLgEkpl1S1IMABCAAAQhAoFIEkJhKLQeDgQAEIAABCECgXQJITLukqAcBCEAAAhCAQKUIIDGVWg4GAwEIQAACEIBAuwSQmHZJUQ8CEIAABCAAgUoRQGIqtRwMBgIQgAAEIACBdgkgMe2Soh4EIAABCEAAApUigMRUajkYDAQgAAEIQAAC7RLQEnPI/k/nxxs6fvz4vngNSiEAgZoRWGqu8gUBCECgCgS0rFy6dElrjJkZ//GLxMT5UAoBCEAAAhCAQFkETF+RHuPkxDtGYuJ8KIUABCAAAQhAoCwCjrIUX8Y7RmLifCiFAAQgAAEIQKAsAkVrcXLiHSMxcT6UQgACEIAABCBQFgFHWYov4x0jMXE+lEIAAhCAAAQgUBaBorU4OfGOkZg4H0ohAAEIQAACECiLgKMsxZfxjpGYOB9KIQABCEAAAhCoKAEkpqILw7AgAAEIQAACEIgTQGLifCiFAAQgAAEIQKCiBJCYii4Mw4IABCAAAQhAIE4AiYnzoRQCEIAABCAAgYoSQGIqujAMCwIQgAAEIACBOAEkJs6HUghAAAIQgAAEKkoAianowjAsCEAAAhCAAATiBJCYOB9KIQABCEAAAhCoKAEkpqILw7AgAAEIQAACEIgTQGLifCiFAAQgAAEIQKCiBJCYii4Mw4IABCAAAQhAIE4AiYnzoRQCEIAABCAAgYoSQGIqujAMCwIQgAAEIACBOAEkJs6HUghAAAIQgAAEKkoAianowjAsCEAAAhCAAAQiBN58882Fhfl9kRoUQQACEIAABCAAgQoSuHbt2qlTi0hMBZeGIUEAAhCAAAQgECOwubm50lxGYmKMKIMABCAAAQhAoIIETp8+fW5jdd9rr71WwcExJAhAAAIQgAAEIOAl8Nprry0sLGxtru9bX1/z1iATAhCAAAQgAAEIVJDA+vra6eVTzx+d37ewMH/t2rUKDpEhQQACEIAABCAAAYfAtWvXFhbmn33mmbW1tX0rK82lpVNODV5CAAIQgAAEIACBChI4derUSy8dXRP/7bv6ytZKs3nmzJkKDpQhQQACEIAABCAAAU2gubKysLCwtrZ28uSJJx6+P5WYq69sNU+fxmM0IxIQgAAEIAABCFSNQLPZXFpaWltbe+mFpx/58mePHZ7JJEbGY5aWljgfU7U1YzwQgAAEIACBISdw7dq1xcXFpaWl1dOL3/vON7/1tYPHDs9YEnP1la319TUZpeF910N+uzB9CEAAAhCAQBUIvPbaa2tra/Pz88vLy2tra9/7zjefeuIhaTCuxFx9ZeuVrSunl08tLMyfPn16c3Pz2rVrb775ZhWmwRggAAEIQAACEBgGAm+++ea1a9c2NzdPLy/Pz88vLMyvrq6ePHnikS9/9umZR7XBeCRGHpFZW1s7c3pppbm8ePLk/Pz8cf6DAAQgAAEIQAACfSGwsLCwtHRqYWFBvwtJH4IxDSYoMVdf2Tp7evHc6umrW5svHX1RvpGp/f8vHH/hsa/c4/S0u5dPzzz62Ffu8Xb94g+/u7rvoLSuyP91nfP/8siZX/36p377I+9+y393+83/YnV+2bxqa3P9y39z31ve8paf+Ikf/9vHHsuLtjZlC3fdcov3a997vnTq5dN5fXFQ2vtSj+Ts6cWjzz1VmNTq2lr2dezFH3ztP31xd8Q6veqpJx46+tz3dNdra6uLJxeOvfgD7xRaZl7YOPPiD7+7trbqbcHpyOx0bW315RNHzzYXr25t6l40MZ1jJva950vmy6uvbOkG77rlFple3Xfwr++/78hT3/v23Nyp+RcubJz56/vvu038d7a5uLW5vrW5Ll/edtttP/dzP/v7v//7n/rkJ3T+pz75icvnV3WFB7/8patbm8/+5PR/vOPuEz96fuWffG35N//2O48/8vT3D7984ujqvoN33XKLMyTvy+K8VvcdPPrc97Y21y9snGmeOn75/Orl86sXNs68fOJoCqTV18snjm6eP+ftq9PMtbVV+Q/f7HRlaT7e/qX798mv0O+IusIl9WaCbGAbV+Ucm6eOpQnjn8+pl0/fe+iJew898egTh+899ET6r2xr88UffvfCxpmrW5sXNs6sLD6z3jxahS9zdi0JlDHg5qljJ186fPnCqrlqOr21ud48dezyhVV5Y3f6/40zS81Tx3RrTmJrc/3lE0eX7nh09YHHTz9/76W1Zy/c/eRdt9yyuu/g6r6D5/9sZvVthzYfPrzvPV8yv8697xub/+m7l9ae9X6t7jvoze80c2XxmUtrz5586fB3vz2zuvzCFw8++vDDX11dfuHhh7/6xYOPriw+891vz3zx4KOhZu+d/stf/ke/6JTOfeOvf/K/edv5lR9c+PTs2n916NZf/f2v3veZS2vPbh5+auPA19Z/5eG7brnl0tlnNsa/du4P/vZiMx2A/Dr/ydnVtx269NwPdI45zX3iP12kExtL3zzz0qEr59OV3dpcXz29eO7MUqcreOX86lL0J8numu10GJH6V86vrp5elP+05Q22tbl+8uSJkydPyI3SPATj7HH5wV7zx4dMN5fmL2ycuXD+3DPiI2UKm24w46UXnnYCPscOz5w79M/ML2cckZcRjzn63FPF/aA4kdV9B9cem//o33nvL7373f/uL/7i3MbG+T/47oV/ftis+cV7vnDzzTd/7/B3v/zlB95Oij7WAAAFLUlEQVT61rc+9b2sVLbv1Ze7brll33u+dNctt9z92YdaeoweZ8Bg1vQG/L3vzOgjSxEsPSlKVenFH+iu19ZWTxx/wdlLTErx9Ob5c9JgpMSkd6SxJ119Zcvpy+xXpo+9+IPUY4yrNDczU6eLHnP1la2/vv++T33yE9JjbrvtNt3C1ub69w9/87bbbrvzzjt+4zd+43d/93/9q09/6vDczG233fapT37ibHPx3e/+xaLESMuRFU4cf+Fsc/Eb/3PjS//TXz79U5/7xt/7q8k/zQynG4OR3EyDkf/aL59PfSITuzY8RmPZdcJrMPJnSsRjLs99Uu/ixS380v3pH2jTFS7dv+/y+VVrhFub2mNWjdW/cP7cvYeeuPuzDz36xOHnj87LS06ePKE9Zr15tIIeownIKTsvL92/rwyJkW2efOnw1ua6Ixl6S9idx6wszaeLErj9UoOZ/+6Jp+9d+cqXV//uly/+6PuX1p6VBrPxL76+8b88tv4LX734zPdNfZHpzcNPnfuDv9VbtZkwt3Yzv9O0NBV51ZmT37n7sw89+a0npMrc/dmHTJXRLZ9f+cHywpP65UbzyN/9qZ985Cv/UefIxC/9g7/3ld/5d+s/9+Dmd48cmfvy7/3uuK5w1y23bPzTr6Uvm8+c+z8fX//ZB8/9q8fPf+ib6//Dw2v/7UMXv/2UrmlOc9++feZLXefMS4eaLz0i4V/YOLN04uiFjTMRFYgUnTuzVPzlxFzW5qlju2480m87RedWT8up6fFc2Djz3I+e1QYz962vmYdgnL0vJjEyHnNh48ziyROLSoiC5mIUOBJj/vxy0s5oQi+fnnl07ltfM3rIkosnTzge88rShStzK9aPyEtXtubPPbDvI//PP/zgpYvZb/lbxzdW//NDutpnPvNXP/32tz//3I9kzr1fvOfmm29eOrWo97+ixOx7z5f0D9bvPPWjC+fPXQj/KqzbOXt68aUXni5OROSkYZjvfWfmO397KMSht/m9NRgdg9FqsrKUbTya88snjq4szesK3kT3HvOpT37itttuu/rK1l233PLyiaNra6uS/9ra6p/+yfve+ta3/oNf/IX3jP/Wz//8z4+M/MyP/diPve1tb/u1X/3V3/qnv/nf/9K7/+RP/kTHXaTcyEiMDMlsba5vnFk6+8Pja//1Qxvv/fbRH6Wxk6uvbLVpMPJ3U01DJi5snJExmLPNxbPNxcvn3V+X2/SYrc31FPjGVaf99l+ura1unFnSP0eKieap4954jCMxb6zPvrE+qzfvrcd+wZGYrebzzqg2z597+cTR9HevY8/ILfPRJw6/dPTFew898fzR+SwM88rWo08cvvuzD62tpnE+uVs3Tx2roMc4P+XMl+UZzHrzqIzHFBdO5siQSfvxmMsXVlebi5Fb4vL5l1N9eenLG6e+kQZg/t8n13/pq9JgLjafWf+lr67/ysMXT+ehCK0ycpPe/Ob39G6tE969XJe2mVhZfGZr9dnHH3/87s8+9PBjX5dXPfzY17948FGpMnd/9qG7P/vQ41+3LOovP/7Bn/jxt/yX/8WP/9zPvv3uv7zj4mo68vs+/4mRn/mpU8e+ZXb9x//yn33sP/s/Lj6bGtultWc/edeHpLqlMZjVZ9d/5eEL09+WRRe/f+TCx791/v3fvPD5uUtGVMac5r59+8zGdXp1IZUhuXYiQHvsyvnVK4WfD+1YgqyzIqISkdujeSrtov0Ge1Lz3Jn03UbmqFZPLz5/dF7ukkePvlg8BOPsg/8/Geanq8cilhsAAAAASUVORK5CYII=;" vertex="1" parent="1">
          <mxGeometry x="70" y="120" width="614.59" height="410" as="geometry" />
        </mxCell>
        <mxCell id="4Q7gMns1i78unIfoOugQ-2" value="" style="rounded=0;whiteSpace=wrap;html=1;fillColor=none;strokeColor=#FF3333;dashed=1;strokeWidth=5;" vertex="1" parent="1">
          <mxGeometry x="210" y="150" width="130" height="80" as="geometry" />
        </mxCell>
        <mxCell id="4Q7gMns1i78unIfoOugQ-4" value="" style="shape=image;verticalLabelPosition=bottom;labelBackgroundColor=default;verticalAlign=top;aspect=fixed;imageAspect=0;image=data:image/png,iVBORw0KGgoAAAANSUhEUgAAAlMAAAIICAIAAADFavyLAAAgAElEQVR4Ae2dUWxc13mg+Ryg730KwAcW4EtDLB/4FKpRoiyKlWsl8gKEGYtGA6VqtAkywEQDoZtm6yYLP7gt4s52RMcpUjRI6mzQbpXsMgQlFbsbZZO1yHBDJY5sh7E4GkpiQpO2RJnDSJqNe9Lfp+fce3nucM459858BpHcOfe/55z55tf5+J97RxrqaP/dvHnzp6s/+9K3X3vkqR+MfOwyPxCAAAQgAIE+IPDIUz/40rdf++nqz27evNnpdIZEfK1W64fX1j73wmofvEneAgQgAAEIQMAg8LkXVn94ba3Vav3afDdv3vzhtbU/+ttXjTheQgACEIAABPqGwB/97as/vLb2tvm2trZ+uvozqr2++Wh5IxCAAAQgkEbgcy+sDj148ODll1/+0rdfSwuiHQIQgAAEINBPBIY2Nja+t9LkkZZ++lB5LxCAAAQgkEFg6OWXX/6zv/9ZRgSnIAABCEAAAv1EYOjKyuq//eOlfnpLvBcIQAACEIBABoGhr1zgawx8cxECEIAABAaIwNAf/+21DDFyCgIQgAAEIBCSQO3Lr3z+hdXxT31/30HHP/X9z7+wWvvyK/tGGgFDJ/5sxWjq7uUTf3711lb769+5NfKxy999afvWVvuJP7/q2NUr6zvffWnbMViFff07t3INkatzgiEAAQhAIBaB2pdfefaba/vKb/xT33/2m2vPfnOtG/O9t/ZirrenDCd/84s6+Pp3bmWY77svbRvx6qWoyzbfK+s7iZeIIBPNV/9W8+5b9+vfatrvKDHeDqMFAhCAAATiElCVXLb8RHuff2H1d85eyTvhobFPfC/XNcpwYiC5NsN8EvPpv3757lv3VV0ojSMfu2ybT87Wv9XcuvvLs39jFrOJJsN8wo0DCEAAAuUlkC2/A2pv5GOXh/KiOYj5nvmH67t7Dy4sbxqDZpjvv37n9v0HD7/6P28al2A+AwgvIQABCPQTgTT5HVx7Qc039snvrbx25/6Dhz9/Y+/jjZf0T0j2NmX/U5396LM/vr3Vvv/g4c3X2x999seqZJRdUCN45GOX699q7v3yoQQYB3a8PgeOIQABCECgUARs+fVEe+HMN/bJ73178Rc7u/cb/6P5k+bOT5o7v/vZd/4hpMSa7yPPXH11/d7N19t/8rXVjTf2rt3Y+fdP/1A+FWo+QcEBBCAAgX4loMvvd85eUY+0dHdvT0cUYrfz97/wo6vX79556/6z59dGPnb5I89cfbm183Jr5/e/8CM1FcN87629+JV/uvnmvfu/eHNP3eE7+zev/OLNvV+8ufcX/+362CffvjGJ+fRPkWMIQAAC/UpA5Ncr7fW+5pMNRtlaPPrUD15q3v3Z7beqX3pZPpj31l78px++vrHdVv8ukmG+jz7745/evLfy2p2PPPPO9yI+8szVq9fvvtS8q4pFzCcwOYAABCDQ3wSk2nv2m2u/96fLB3+zIWq+fWdpmG/f+Iyaj/t8LvSIgQAEIFAWAnJvT2o+ly+5Z7+7oOb7eOOlK6+88ea9+w//+TGUhw87O7v3f/izO5/+63fKQWO67629+PX/fWtj++3nXFRB2f7lgxu/2P3rhZba9jTi5WXaM6gSwAEEIAABCBScgGjv8y+s/t6fLn/+hdXs7/k5vp0emO/D//n/feqL1z767I+z/w6XL5xfu9d+8JPmzlNfW1Vfn39v7cWnvrb6UvPuvd37/+W/J3z9/Hc/+4OfNHfevHf/7797W/5GmJN/+eO//+7tO2/dv/zj7Qz5YT7HDCAMAhCAQDEJ6NpTX1eXe377/g0v2e+oS/PJ/byHDzv3du9vbLef+tpqtvmuXr/72u23jnzG/Hchxj75vR+t3b12Y8ee6BfOr72x88tn/uG6fepvLq6/ee/+n3wt9a/bxnw2NFogAAEIlIWArT01857IL7f50qgp02T8vZ1ezSffCBQlZxzYf4lM2puiHQIQgAAEwhNI056aycHlF858vdrt/A/nfqK+Gpi92xn+o2JECEAAAhA4OIFs7an+Dyi/cOYb+djl3//Cj4I94XJw+vQAAQhAAALhCchjLNl/FbUuv7yTDGq+vJMjHgIQgAAEBo3AH/7VS45/S8v4p75f+/Irf/hX/+qvw3TB1TPzuQxGDAQgAAEIQCA6Acx3OfpnwAQgAAEIQCAkAcyH+SAAAQhAYLAIYL7B+rxD/lbFWBCAAASKSQDzYT4IQAACEBgsAphvsD7vYv7+xawgAAEIhCSA+TAfBCAAAQgMFgHMN1ifd8jfqhgLAhCAQDEJYD7MBwEIQAACg0UA8w3W513M37+YFQQgAIGQBDAf5oMABCAAgcEiMPQS/0EAAhCAAAQGicBQxr9jxykIQAACEIBA/xHAfP33mfKOIAABCEAgiwDmy6LDOQhAAAIQ6D8CmK//PlPeEQQgAAEIZBHAfFl0OAcBCEAAAv1HAPP132fKO4IABCAAgSwCmC+LDucgAAEIQKD/CGC+/vtMeUcQgAAEIJBFAPNl0eEcBCAAAQj0HwHM13+fKe8IAhCAAASyCGC+LDqcgwAEIACB/iOA+frvM+UdQQACEIBAFgHMl0WHcxCAAAQg0H8EMF//faa8IwhAAAIQyCKA+bLocA4CEIAABPqPAObrv8+UdwQBCEAAAlkEMF8WHc5BAAIQgED/EcB8/feZ8o4gAAEIQCCLAObLosM5CEAAAhDoPwKYr/8+U94RBCAAAQhkEXAy3723dm///PXXbtxcXVvv+5/Xbty8/fPX7721m4WNcxCAAAQgUFoC+5vv1s9fv37j1pt3d+4/eFDat5lj4vcfPHjz7s71G7du/fz1HJcRCgEIQAACJSGwj/nuvbV7/catX/7yfkneTs+mubvbvn7jFpVfz4DSEQQgAIHCENjHfLd//vqbd3cKM9ugE3nz7s5tyr6gyBkMAhCAQAgC+5jvtRs3B2ST04Z9/8GD127ctNtpgQAEIACBUhPYx3yra+ulfnsHnPyAv/0D0uNyCEAAAsUkgPmyPhfMl0WHcxCAAATKSQDzZX1umC+LDucgAAEIlJMA5sv63DBfFh3OQQACECgnAcyX9blhviw6nIMABCBQTgKYL+tzw3xZdDgHAQhAoJwEMF/W54b5suhwDgIQgEA5CRTOfHfu3Hn00UevXLmSzfPpf/7PMfjOnTuHDh06f/58dp/22Vjmu/xq59/95YM37tkzeqfls+cffvb8wzfuvR15+dV32hOP3rjXmXzmwQsvPkw8SyMEIACBgSLQe/Otr6+/+93vHkr6L9E9J06cePrppwW6LbMrV668613vkv4OHTp0586dRPOdOHFCwtTBu971ritXroQ33+VXO7/56Qe/8cl3fn7z08l+mvriQwn7lcwUB8N8Rm+Tz7wtxUTz6b2pbtW4mE8SjAMIQAACvTdfGtMTJ050bb5HH330zp07es+J5lMBtufsFr2rjOPuar7Lr3ZG/qPpucTGqS8+nPrir2239nrntz7zjimV3tTcDBGqxkTzqVO25+yWjHfNKQhAAAL9TcCj+dbX1w8dOrS+/uu/BSaY+VTRadSRIXc7EyVnN15+tfNvPvdgTfsHIT57/tciNFRnvFQZmWE+JVGpIDudDubr7z/GvDsIQCAXgUDms/cw1SxVNXbixAmZtB155cqVXDXfiRMnDv3zfyJdNcrQ0JDa/JSx9j3orubrdDpGAfcbn3xg73Ymmk/pylCd8VJNO8N8U198OPnMg8ln3tGqMl/iNPaFQAAEIACBPiMQyHxp1K5cufLbv/3butjEUkNDQ6puczef7tErV6685z3vUfJT7Yl7rWkTU+1dm8+osRLV1el0er7bqcZVO6i6WY35ZL9rzkIAAhDobwK9NJ/xKIrxsIn+yIkwVY+36Buh7jWf0aG9ySktwcxnPIoij67oB0bxpz+TIs9eGqY0Xip6nz3/60djpEN7k1NaMJ+kHAcQgAAEemm+vDTPnz+vHtRcX19/z3veo77J4G6+p59+2g5OnEMw8yWOfvDGNPPxrYaDs6UHCEBgAAl4MZ8yjV7zKcPpfM+fP6/fdZOXtszcdzulf+PrDe9+97vlnp/EuBwccLdTL/X0ZzX1ofWaLy2+C/MZ3f7WZ96556ePzjEEIACBASTQe/OpPUbjptrTTz+t60cv8gS6KgHX19eNb7Lbm6jqKw2JNZ+Srv5gZ6fTEa3KWI4H3ZlP9hj1UT57/qG7fgzV2Zuo6vGWxJpPbWzqD3Z2Op0XXnwom6L6rDiGAAQgMIAEem8+2cPUadqVnH5WP3aMTPs+X2KB2Ol0jO/L6yNmHHdnPsNbqn/Hv2xFBSf2YMwz7dnOtGt/9diLoUOjQ15CAAIQGBACvTefS82XAfeA5uvLmi8RV5r5qPkScdEIAQhAQAj03nydTsflPp/MwDg4oPlUbyW6z2e8ffUyrW7Tg9PMp2K4z6ez4hgCEICATsCL+fQBSn3c3W5nqd8yk4cABCDQ9wQwX9ZHjPmy6HAOAhCAQDkJYL6szw3zZdHhHAQgAIFyEsB8WZ8b5suiwzkIQAAC5SSA+bI+N8yXRYdzEIAABMpJAPNlfW6YL4sO5yAAAQiUkwDmy/rcMF8WHc5BAAIQKCcBzJf1uWG+LDqcgwAEIFBOApgv63PDfFl0OAcBCECgnAQwX9bnhvmy6HAOAhCAQDkJYL6szw3zZdHhHAQgAIFyEtjHfJtbb5TzffVm1ptbb6yurfMDAQhAAAIlJZAog33Ml3gNjRCAAAQgAIEiENja77/ESWK+RCw0QgACEIBACQjsJ76txPeA+RKx0AgBCEAAAiUggPlK8CExRQhAAAIQ6CEBzNdDmHQFAQhAAAIlIID5SvAhMUUIQAACEOghAcN83/jGN4yWxLG4z5eIhUYIQAACECgBAd1z3/iX//TGxPeA+RKx0AgBCEAAAiUgIJL7F+v9+v+lPfE9YL5ELDRCAAIQgEAJCIjh0g4S3wPmS8RCIwQgAAEIlIBAmvCkPfE9YL5ELDRCAAIQgEAJCIjh0g4S3wPmS8RCIwQgAAEIlICAEp5xk0+9VKcS3wPmS8RCIwQgAAEIlIAA5ivBh8QUIQABCECghwQwXw9h0hUEIAABCJSAAOYrwYfEFCEAAQhAoIcEMF8PYdIVBCAAAQiUgADmK8GHxBQhAAEIQKCHBDBfD2HSFQQgAAEIlIAA5ivBh8QUIQABCECghwS8mG+3vcfPgBPoYY7SFQQgAIHeEsB8SNoLgd6mKb1BAAIQ6CEBzOdl3R/wgm+3vdfDHKUrCEAAAr0lgPkwnxcCvU1TeoMABCDQQwKYz8u6T83XwxylKwhAAAK9JYD5MJ8XAr1NU3qDAAQg0EMCmM/Luk/N18McpSsIQAACvSWA+TCfFwK9TVN6gwAEINBDApjPy7pPzdfDHKUrCEAAAr0lUBrzbW5tnzx1enFp2UUqi0vLJ0+d3tzadgkmxgeB3qYpvUEAAhDoIYFw5mu2WpOHjwyPjNo/c/ML9uJbqdbqjVlpt823ubU9NT2jX1up1tTLbPPVG7N6zzIEBz0k0MMcpSsIQAACvSUQznxpq6roygjoofkypDs8Mjp5+Eiz1TJG5+UBCdhpendn5/EnnlS/9xx6/wdvb2x0Op2Vlatj4xPyy9C5556XC88997y0X7h4SdovXLxkdKJOVc+cVe3VM2clWO9kbHxiZeWqOiXj6o2dTietc3XVueeel5knvh0ZlwMIQKDIBCKYr9lqTU3PiGwCmO+AiziXd0HASHrlCRHbysrV//O97yvz/cHHP3F3Z6fT6dze2Dj0/g8qyd3e2Pizv/iC6mRl5eqhw0eUtC5cvCTuOffc848/8aS6tnrmrBKeMVD1zFkZVKaU1mFa5+pCNT0Z/cLFS+JjfSYyCgcQgEBhCUQ2n72HqRZZtZNZqdZkzbUjVYyUBcbB1PSMcZ/Prvyo9gRvzw+MjF9ZufrIhx5TdZ5+amXlqpiv0+lUz5wVnehhIjA94PbGxiMfemxl5ertjY3Hn3hSOr9w8ZJuRLvDc889LzpUplQxiZ3LNN4u+A4fSXwXMhMJ5gACECgygcjmS1twF5eWjz76Yf0pFd1z6i5drvt8b3d47LgUmmrcxaXlyfd9wPGpmbSp0p5IwEj6NDfo5kuzoxjR7kS5Sledqh1FhLrM1JR01akWJcK0zlWMmtuFi5fSzCcjGm+clxCAQAEJhDDf4tKyfi/HKM7Uy7HxCd1A6iafvhGaVvM5PuGSKLnExsR1nMa8BOxcV7fQ9Jtw9n0+uz5TMco3Rm2njHjuuecvXLykdysOU5KTfFOd393Z+YOPf0Ju+HU6nXPPPV89czat81+NIrJMc7PqwX7LtEAAAsUkEMJ8eRfNufkFtVfZbLWOHjuujJhmPlnX1EHGs53sdub9IA4Sn5juoiLZbNRrPnVWTqkeLly8JA+hpMkpzXz6HNQjLb+K7MJ8steaaL7qmbOyuaqPyDEEIFBYAkHNp+9YKlHZd+Pm5hf0+k9e2ubLWJf5VkMGnDCnMjJeN5xuPuOBFxWmS0WKOel8391OiVS13a+KM9WtXlxm73bqW6mG+ZRNDVXrI3IMAQgUk0A486mSS9+c3G3v1Ruz+mMmepEnC7QqAZutVuI32dNu4On3CKUrdcD3+QwgPl5mp7voJM18uh2lK0NaIkJDSNK5XKgO5MEWqeH0nczEzv/vi1fkmxj67sKFi5f0B0SNgXgJAQgUnEA488kepr7OuldyaZGJ5tOH6OIuo345x90RMPJ+ZeXqf3rqc9IoX0LQzafbTm+Xq9T37eR7BfrdNelQF9jtjY1/PP9NdbkuKv1Y16TxrQb93qF0Ik+4iEf16XEMAQiUgkA487nUfBmLbNfmy+iTU/4I2Nmvf6lcpCLfKFcVlewcyjfKpdKSS6QffSNUCc/oRO1wqka5WagmJv2LR1V7YufyXvTiUr44LzPUd1DlEg4gAIECEghnvt32nst9vrS1OMN8aQ+OGjuraT3T7oNAAXOdKUEAAhBQBIKaz8cKS5/FJMAfMAhAAAKFJYD5+FeKvBAobMYzMQhAAAKYz8u6X8w6LOSs+KMFAQhAoLAEMB/m80KgsBnPxCAAAQhgPi/rfsjqqphj8UcLAhCAQGEJYD7M54VAYTOeiUEAAhDAfF7W/WLWYSFnxR8tCEAAAoUlgPkwnxcChc14JgYBCEAA83lZ90NWV8Uciz9aEIAABApLwIv5VtfW+YEABCAAAQgUk4AX8xWzCmFWIQkU9nc9JgYBCEAA87Hb6YUAf7QgAAEIFJYA5vOy7oesroo5VmEznolBAAIQwHyYzwsB/mhBAAIQKCwBzOdl3S9mHRZyVoXNeCYGAQhAAPNhPi8E+KMFAQhAoLAEMJ+XdT9kdVXMsQqb8UwMAhCAAObDfF4I8EcLAhCAQGEJYD4v634x67CQsypsxjMxCEAAAqUx3+bW9slTpxeXll2W78Wl5ZOnTm9ubbsEE+ODQK4/WhcuXnr8iSfv7uxkXHXh4qXqmbO3NzYef+LJ2xsbGZHup3rS592dncefePLCxUvu4/Ywsiejn3vu+XPPPS+zytVn9cxZl/fu3qf6UGQy2QfVM2f1mWcHcxYCQiCc+Zqt1uThI8Mjo/bP3PyCvfhWqrV6Y1babfNtbm1PTc8YvamuMJ9wi3UgGWYfGOtsp9MxzFc9c9b4WC9cvJRoKbWeGsHyUrepe5/2hDudTuJAh97/wdsbG4lruj2cmlX1zFmj/7RIffI+Rr+9sXHo/R8UVnKgfrHQXZ4YKdMzzGe/HWWmREqdTmdl5eojH3pM/1Um0XwrK1fHxifUJBV2hRHzGenES0cC4cyXtgRXqrWDmE+uNUQ4NT1DzZfGPEB7Rv7taz517crK1T/4+CekEEw0nzFK9cxZWy16jEuf+iJrVzN20Zm2puvjquPENd0wh32V3tLz0fXO5TjtHRn0VHz2/MVMGX3ua76VlauHDh9ZWbkqI4r8pH+ZPAcQcCEQwXzNVmtqeqbZaqn1t7fmo+YLYDWXITKSz16tjJpPXWuss/ua79xzzyvzZWx/ufT5la/+ndLt7Y2NRz70mCy4alY9d49dJKnKJvFd9Hz0CxcvSbU3PDKqTJ9mqXPPPT82PrGyclUFyIX27wfy6ctnndanS81n/Kpk1KCJoGQCHEAgkUBk89l7mGpVVQVcpVqTRdaOVDFGzYf5hFjcg8Rs63Q6atmS39lVWKL5Lly8pMLEDWn3+VSfsgKee+552YszpuHep+xwGsu6UX+khRnjytu0S9Lsmsnop7ejG9YR0ydaSpXC1TNnDbbZ89/XfBcuXlI2lXdqV8a2+eRer/Qvl3MAARcCkc2XtjovLi0fffTD+lMq+mamuv+XaD75PZTdzjS2YdrTkk8tVca2ZKL5pMJQXSXWfOeee354ZNTwqLp7pG4LiQ5VJy59ysyNAlF6GB4Z1btN9IR0oh/Ya/qvxJltDv3yTqej3m+vRnc3nyoN1S8BBkNj/vJrivxJVLNNo1Q9c/aRY8f1Xy+kDJWP1fC9njyYz8gQXjoSCGG+xaVluTstfx6Mg7HxCf25TfV4i74RmlbzGf1Q84UR276jJOafrFlqHZQV3Dbf3Z2d6pmzX/nq3+kxaTVf4lh2o2OfsplmFDeqYH3kQ4995at/p9+aMtZ0e+k3UnR4ZFSv/NLiZd2XN6Jqst6OLppRk1QGMt5RYlkm07PNJx+ZzDytMlbqvXDxkn1DV79W/1XG+LUD8xmgeOlIIIT59l0ljYC5+QVVsTVbraPHjisj2uYzrtJf8mynTiPKsZF/ajHVV3xV7qgW23xqg0u/rZVY8xmjZL/M26fa39PLEXUrUdVe8l4MTxhzMOoq46z+Un+zersc+xvd2E7MfkcyH3XQtfn0UeStqQd9ha0xFi8h0CsCQc2n71iq3zHtPcm5+QW9/pOXGeaza0r96xBR1n0GzZWghvn0bUbZIbTNpz+EaddVqkXuITn2aUxbX5H124dq1c7ex1Nd9cp8PR/dqPZ0gP94/pv6txp0Jmq7VYIFr8SkFWG656QEFMOps/JrkLRLt8bl0p42nARwAIFEAuHMp77PJw+kKDfUG7OTh4/Ic556kSfyUCVgs9VK/Ca7qFHilV/1p2PkFAfBCCRmm1EtSYxuPnnOQs6qqsI2nwTIgVG7SHvXfYr55NEY6VPWYjmQU/pBT8wXYHR9zmnHslktAXZZnLh5a39HUMBKV4JRfteRU2JKvf5WZzGfToljdwLhzCd7mPrim1HJ6WG77b20SOML7+qqtx+QOXZchGp0xcsABNJS0F7y0iKN9oOYz+hKXtp93t7Y+Mfz31QB6oafvdrK5epAlmyjXb3MMF+iJKScUgd29WOM0vXoqp+Mys9442mbsWm/beSapx6cYT4DjnqZeFtR75BjCNgEwpnPpebLWJHTzEfNlwEt4ik71VRLwc0nz08Oj4zaW3mJb+qA7kns073Rx+hpfbrUfGkzT+vTjs8wnyFjdasY89kMadmXQDjzqbrN+PvG7Pt8aYt1mvl223vc50uDFrE9LfOMG0XyW/y+mrHrM3sIx/pDLnTpU4LTDrLX9IyaL63DXO0+Rs/o0/j45AnPfeec0adxbYb5JFv0A8xnAOSlC4Gg5ou4EDN0YAIuyUcMBCAAgSgEMB//SpEXAlGymUEhAAEIuBDAfF7W/cAFVgGHc0k+YiAAAQhEIYD5MJ8XAlGymUEhAAEIuBDAfF7W/QIWYYGn5JJ8xEAAAhCIQgDzYT4vBKJkM4NCAAIQcCGA+bys+4ELrAIO55J8xEAAAhCIQgDzYT4vBKJkM4NCAAIQcCGA+bys+wUswgJPySX5iIEABCAQhYAX862urfMDAQhAAAIQKCYBL+YLXF4wXAEJRPk9jkEhAAEIuBDAfOx2eiHgknzEQAACEIhCAPN5WfcLWIQFnlKUbGZQCEAAAi4EMB/m80LAJfmIgQAEIBCFAObzsu4HLrAKOFyUbGZQCEAAAi4EMB/m80LAJfmIgQAEIBCFAObzsu4XsAgLPKUo2cygEIAABFwIYD7M54WAS/IRAwEIQCAKAcznZd0PXGAVcLgo2cygEIAABFwIlMZ8m1vbJ0+dXlxaLuAqz5RsAi7JRwwEIACBKATCma/Zak0ePjI8Mmr/zM0v2EtnpVqrN2alPdF8i0vLY+MTdodj4xOGI5ut1tT0TLPVkg5323vNVuvoseNGpB7AcdcEomQzg0IAAhBwIRDOfGlraKVa69p8iX0mOhLzJbLy1+iSfMRAAAIQiEIggvkMCQUzX2LFaVeH/mQwUD1HyWYGhQAEIOBCILL5Euuz3fbe5tb21PRMpVoTW6RFSoAcJEYaulXB7HYKtJ4fuCQfMRCAAASiEIhsvrQFd3Fp+eijHz556vTm1raKUS5Ut/T0+392D2nmo+azWflriZLNDAoBCEDAhUAI86U9h6I/mWLsOqrHW/SNUMNnXfTpb5WnZ5uAS/IRAwEIQCAKgRDms5fF7Ja5+YWp6ZnNrW19N9Iwn92D8SyoBOBIQRHyIEo2MygEIAABFwJBzafvWKqCTxlOX5Hn5hf0+k9edm0+vXN1XG/M6ncQ7QBaDk7AJfmIgQAEIBCFQDjzqe/zGV9gqDdmJw8fka/Z6UWeLL6qBGy2WtnfZE+r+VQ/i0vLctcQ8wlbfwdRsplBIQABCLgQCGc+2cPUV9t9KzkJ3jcS8wmrIhy4JB8xEIAABKIQCGc+l5ovY8nuofkyRuFUrwhEyWYGhQAEIOBCIJz55Ft6+iOd9n2+tJX34OZL/HvOhkdGs78jkTYf2rMJuCQfMRCAAASiEAhqvuy1krP9RCBKNjMoBCAAARcCmI9/pcgLAZfkIwYCEIBAFAKYz8u630/VW3fvJUo2MygEIAABFwKYD/N5IeCSfMRAAAIQiEIA83lZ97urk/rpqijZzKAQgAAEXAhgPsznhYBL8hEDAUOWgsUAACAASURBVAhAIAoBzOdl3e+n6q279xIlmxkUAhCAgAsBzIf5vBBwST5iIAABCEQhgPm8rPvd1Un9dFWUbGZQCEAAAi4EvJhvdW2dHwhAAAIQgEAxCXgxXz/VLryX7gi4/NpFDAQgAIEoBDAfu51eCETJZgaFAAQg4EIA83lZ97urk/rpKpfkIwYCEIBAFAKYD/N5IRAlmxkUAhCAgAsBzOdl3e+n6q279+KSfMRAAAIQiEIA82E+LwSiZDODQgACEHAhgPm8rPvd1Un9dJVL8hEDAQhAIAoBzIf5vBCIks0MCgEIQMCFAObzsu73U/XW3XtxST5iIAABCEQhUBrzbW5tnzx1enFp2WUhbrZaU9MzzVbLCJ6bX5iantnc2pb2xaXlk6dO6y1yioODEIiSzQwKAQhAwIVAOPM1W63Jw0eGR0btn7n5BXuRrVRr9castKeZr1KtSYeVak3FYz7hFuvAJfmIgQAEIBCFQDjzpS3BlWqta/NVqjWx3W57T14a5qs3ZsWOcjB5+Eiz1aLmS/tcDtgeJZsZFAIQgIALgQjmM7TUtfnsKlA0Zgwhizi7nYLC94FL8hEDAQhAIAqByOaz7aVW5M2t7anpGb2eS4yUIk9dJS8xn2+x7dt/lGxmUAhAAAIuBCKbL20BXVxaPvroh/VnT5QL1V6lfv8v132+emNWbXLKuFImSgsHPSHgknzEQAACEIhCIIT5FpeWx8Yn5AZb4sHY+IT+3KZ6vEXfCE2s+dLW6MSar9lqHT12/OSp07o4MV8awwO2R8lmBoUABCDgQiCE+fKuoXI3TrlKGdEwX8aTomPjE6oH/VsNqmSsN2bVgTxTg/nyfjqO8S7JRwwEIACBKASCmk/fsVSVn/Htut323tz8gl7/yUvDfPr6qwtStRs1nxpX7hoqa6rKD/PpJHt4HCWbGRQCEICAC4Fw5lO+kWJLLbLGjTfbYcqF6mvpad9kt68yzCdPvsjKLpPBfMKktwcuyUcMBCAAgSgEwplP9jD1FTajktPDdtt7GZH7ms/oSn+J+XQaPTyOks0MCgEIQMCFQDjzSZmlL69GzaefMo4xnwGk4C9dko8YCEAAAlEIhDOfqtumpmf0Zzvt+3xpCzrmSyNTzPYo2cygEIAABFwIBDVfMddoZuWDgEvyEQMBCEAgCgHMx79S5IVAlGxmUAhAAAIuBDCfl3XfRxVVrj5dko8YCEAAAlEIYD7M54VAlGxmUAhAAAIuBDCfl3W/XPWZj9m6JB8xEIAABKIQwHyYzwuBKNnMoBCAAARcCGA+L+u+jyqqXH26JB8xEIAABKIQwHyYzwuBKNnMoBCAAARcCGA+L+t+ueozH7N1ST5iIAABCEQh4MV8q2vr/EAAAhCAAASKScCL+XzUEPRZLgJRfo9jUAhAAAIuBDAfu51eCLgkHzEQgAAEohDAfF7W/XLVZz5mGyWbGRQCEICACwHMh/m8EHBJPmIgAAEIRCGA+bys+z6qqHL1GSWbGRQCEICACwHMh/m8EHBJPmIgAAEIRCGA+bys++Wqz3zMNko2MygEIAABFwKYD/N5IeCSfMRAAAIQiEIA83lZ931UUeXqM0o2MygEIAABFwIxzTc3v1Cp1pqt1tFjxxeXlrNX9s2t7anpmbn5hewwdXZxafnosePNVis7eHNr++Sp0/sOnd0JZxMJuCQfMRCAAASiEAhkvsWl5bHxieGRUfVTqdZ223tp5tODVeRuey/RfKpRuq03ZtUqbJiv3piVGDmYm1/AfInS6kljlGxmUAhAAAIuBAKZT19M5+YXlKISzbe4tDz5vg9IHVap1pT8RHJj4xPqrGoR2+kvDfPJ6PXGrMQrm1LzCZzeHrgkHzEQgAAEohCIYD69ArN3OyvVmi4n2QtVYtN3O5ut1tT0jL6lqVS6297DfL3VWBe9RclmBoUABCDgQiC0+fQNxsSaz918epEn26HKmmnmMzrXJ9PF4s4lGQRcko8YCEAAAlEIhDaflGVp9/ncdzvFdvqtO7UWJ5qv2WpNHj4yNT2zubWtwpQ71eV6oZmxoHPKkUCUbGZQCEAAAi4EgppPti7V6plY86m9SnkcJvsJF8dVWIXVG7PqrqFsmVLz5QKYK9gl+YiBAAQgEIVAUPOpzUZVe6lKy77Pl2t5VYWj1Hz6weThI/otQKkC5YAnXPKizhUfJZsZFAIQgIALgUDmU/uKUsCpNTSt5pubX9Adph9LuZa9Cut6223vKdfKtfXGrNrzpObLxniQsy7JRwwEIACBKARCmM94FEXW0zTzSYB+oDoRe8mpNE1KzZd4odr5xHyCsecHUbKZQSEAAQi4EAhhvrRVtVfm0x9aSRsrsR3zJWLpSaNL8hEDAQhAIAoBzMffXublby6Nks0MCgEIQMCFQD+YT78RqB/bW6NGNUPNZwDp4UuX5CMGAhCAQBQCMc3Xw3WWropGIEo2MygEIAABFwKYz8teX9E8FH4+LslHDAQgAIEoBDAf5vNCIEo2MygEIAABFwKYz8u6H77GKtqILslHDAQgAIEoBDAf5vNCIEo2MygEIAABFwKYz8u6X7QKLPx8XJKPGAhAAAJRCGA+zOeFQJRsZlAIQAACLgQwn5d1P3yNVbQRXZKPGAhAAAJRCGA+zOeFQJRsZlAIQAACLgS8mG91bZ0fCEAAAhCAQDEJeDFf0XbemE94Ai6/dhEDAQhAIAoBzOdlry+8aYo2YpRsZlAIQAACLgQwH+bzQsAl+YiBAAQgEIUA5vOy7hetAgs/nyjZzKAQgAAEXAhgPsznhYBL8hEDAQhAIAoBzOdl3Q9fYxVtxCjZzKAQgAAEXAhgPsznhYBL8hEDAQhAIAoBzOdl3S9aBRZ+PlGymUEhAAEIuBDAfJjPCwGX5CMGAhCAQBQCMc03N79QqdaardbRY8cXl5az65LNre2p6Zm5+YXssN32nnvkbntvcWn55KnTm1vb+3ZLQC4CUbKZQSEAAQi4EAhkvsWl5bHxieGRUfVTqdZ223tp5tODVWSiz9TlshzLS9t8dkulWlMSxXwCsLcHLslHDAQgAIEoBAKZT19V5+YX6o3ZNPMtLi1Pvu8DUgJWqjUlP2Wv4ZHRsfEJdVZUpzqXl7bn7BbMp38iPo6jZDODQgACEHAhEMF89casXvwZu52Vak15US3Hcta219z8gvSjl5J2pGoxguXl1PQMu509l59L8hEDAQhAIAqB0Obb3No+eeq0XrSJ29Tim8t8shcqFaTsi+rVoe1Car6eq87oMEo2MygEIAABFwKhzSd7kuIqw3zsdhoKKelLl+QjBgIQgEAUAkHNZ0hOWdBoVM9byuMwUtXZddsBdzt5wsWrU6NkM4NCAAIQcCEQ1HxqJ7PZak0ePiJ35mzzHXBFth15wA65vAsCLslHDAQgAIEoBAKZT9lICji1kqbVfHYxJ0+jJH6fr1KtScDwyOjk4SPNVsterOfmF+yHWfhWgw2qJy1RsplBIQABCLgQCGE+pT39ic1s8yWuvImVXGLPxp1C6Q3zCYoABy7JRwwEIACBKARCmC9tnU2r+RLjE823uLR89Nhxu8IzHhBVHaaVknYhmDgBGnMRiJLNDAoBCEDAhUC5zad0aG+iyrfd9cWamk+n4fvYJfmIgQAEIBCFQLnNp5Zv9/t8+u1AOabm82HBKNnMoBCAAARcCMQ0n48Flz4LQsAl+YiBAAQgEIUA5vPyb/QURD8RpxElmxkUAhCAgAsBzIf5vBBwST5iIAABCEQhgPm8rPsRi62CDB0lmxkUAhCAgAsBzIf5vBBwST5iIAABCEQhgPm8rPsFKbwiTiNKNjMoBCAAARcCmA/zeSHgknzEQAACEIhCAPN5WfcjFlsFGTpKNjMoBCAAARcCmA/zeSHgknzEQAACEIhCwIv5VtfW+YEABCAAAQgUk4AX8xVkw41pRCQQ5fc4BoUABCDgQgDzednri6icggztknzEQAACEIhCAPNhPi8EomQzg0IAAhBwIYD5vKz7BSm8Ik7DJfmIgQAEIBCFAObDfF4IRMlmBoUABCDgQgDzeVn3IxZbBRnaJfmIgQAEIBCFAObDfF4IRMlmBoUABCDgQgDzeVn3C1J4RZyGS/IRAwEIQCAKAcyH+bwQiJLNDAoBCEDAhYAyX8b/JnYylNgqjY6lxtz8QqVaa7ZaR48dX1xazr5qc2t7anpmbn4hLazemK03ZtPO2u0q3nF04/J9J2PED+BLSQYOIAABCBSNQIbz1KnECec23+LS8tj4xPDIqPqpVGu77b008+nBKnK3vZcom0q1Jn0aB3Khsk69MasCJg8fabZau+29NPMZLtQnMzwyqtSrT2ZufkH6HEDDpb3lxLyhEQIQgEARCAQyn74+zs0vqOIs0XyLS8uT7/uAlICVak05TMlmeGR0bHxCzkq3zVZr8vCRNAPpclpcWj567Hiz1Uo03+bW9slTp6V/YzJqlLn5Bd18SqKGaGViA3uQmNzVM2fV7x/VM2cTA2iEAAQgEIBABPNJ+TU8MmrvdlaqNX3TUiowQzZiFDHi3PzC3PzC8Mjo1PTM5ta2BOy29yrVmr5Nql7KNHSVKhnLtTK6akkzX7PVmpqeUaWkXDvgB3buVs+cVcK7u7Pz+BNPnnvueTuGFghAAAIBCIQ2n15UJdZ87uZTnpMdSLnPJ/uTYrs089Ubs4bbjMjd9p70pooVe7dTGc6+EPPp6Xt7Y+PxJ568vbGhGi9cvPT4E0/e3dnRYziGAAQgEIZAaPPpRVWi+YwNRsfdTrlvl+gbx93Oza1tVYMmdqI32gWo/r70yIE9NtLXUJ0hQiOYlxCAAAS8EghqPqPASjSfUWbJ/TNDNkYpZjzeol7q25iytyn3Au37fMampdSURudj4xP/6zuXjQdNMZ/heCNrL1y8pN/bu72x8ciHHltZuWqE8RICEIBAAAJBzad2MtXdMqUT+z6fsYCGfGmYTx/aEJuhYXlOVb9kwI+N3MV8BhBeQgACEQkEMp9ShRRwygppNV9asSW39HSpqJ71ssx+wkXFS9mnB+sPi2bsdor59O9RyH1EzKd/IurYyGl2Ow0gvIQABCISCGE+JSf9iU21OKaZz15G077Pp8pHo+d6Y1a2NBO70huNDVj7QRU1STGfutau+ewL9VEG8NjI6ZWVq4986DGecDGw8BICEIhCIIT50tb9g5tvcWn55KnTxncY9MdH04aWdsN8huEcizmjE+l8kA/sbDa+1XDh4iU7hhYIQAACAQiU23w9r/nsW322C22f1RuzxkauHTNoLXbuqq/xqa1mvsxn86EFAhAIRqDc5pNdUP3WXdp9vkT32OWa/hUIVfPpnevHynZGfOIoA9gYLIMZCAIQgEBeAjHNN4A+GJy3nDcRiYcABCAQjADm8/Jv9AyO4dLeabAMZiAIQAACeQlgPsznhUDeRCQeAhCAQDACmM/Lup9WCQ1Oe7AMZiAIQAACeQlgPsznhUDeRCQeAhCAQDACmM/Luj84tV3aOw2WwQwEAQhAIC8BzIf5vBDIm4jEQwACEAhGAPN5WffTKqHBaQ+WwQwEAQhAIC8BzIf5vBDIm4jEQwACEAhGwIv5VtfW+YEABCAAAQgUk4AX8w3Onh7vNI1AsN/dGAgCEIBAXgKYz8teX5oPBqc9byISDwEIQCAYAcyH+bwQCJbBDAQBCEAgLwHM52XdH5zaLu2d5k1E4iEAAQgEI4D5MJ8XAsEymIEgAAEI5CWA+bys+2mV0OC0501E4iEAAQgEI4D5MJ8XAsEymIEgAAEI5CWA+bys+4NT26W907yJSDwEIACBYAQwH+bzQiBYBjMQBCAAgbwE+tB8m1vbJ0+dXlxaTitH9PbFpeWTp05vbm3rjRwfnEDeRCQeAhCAQDAC4czXbLUmDx8ZHhk1fiYPH2m2WvpSmxY5Nj6h+6zemDW6Gh4ZnZtfsM23ubU9NT1jBM/NL+y29zCfTr6Hx8EymIEgAAEI5CUQ1HxT0zOG5NyXWttncm29MVtvzMpLO1KZT6lut71niHBqeoaaT+j16iBvIhIPAQhAIBiBwTUfNV+vJJfYT7AMZiAIQAACeQn0g/kq1VoXNR/mSzRWrxrzJiLxEIAABIIRKJP5KtWavVmqbgrqO5b6ZqYyIrudvfKZez/BMpiBIAABCOQlENR8iU+4qMdS1JK6uLQ8Nj5hPIpivLSfc6lUa5VqTb+NZzzbqbtQeqPmc9dYF5F5E5F4CEAAAsEIhDOfvnoaz6Top3IdLy4tHz12vNlqyYF6gMUwX0afPNuZAecgp4JlMANBAAIQyEugiOZrtlr2U6D2E5tqn1NKvXpjVu152pGygts1pX6DUMI4ODiBvIlIPAQgAIFgBMpqPuPWnVqp643ZSrWWZr65+QVjp1R1UqnWDr7Q04NBIFgGMxAEIACBvARCmM+utORmmxzoTnL8Jrux1MrLNPMZj4CqeH2bVHrg4OAE8iYi8RCAAASCEQhhvrzLqONuZ1q3aeaj5ksj5qM9WAYzEAQgAIG8BApqvsSnQPW6MGOxTjOf+rvKjGdHuc+XQfIgp/ImIvEQgAAEghEoovkOsuBybUEIBMtgBoIABCCQlwDm8/Jv9BREPxGnkTcRiYcABCAQjADmw3xeCATLYAaCAAQgkJcA5vOy7kcstgoydN5EJB4CEIBAMAKYD/N5IRAsgxkIAhCAQF4CmM/Lul+QwiviNPImIvEQgAAEghHAfJjPC4FgGcxAEIAABPISwHxe1v2IxVZBhs6biMRDAAIQCEYA82E+LwSCZTADQQACEMhLwIv5VtfW+YEABCAAAQgUk4AX8xVkw41pRCSQ91cw4iEAAQgEI4D5vOz1RVROQYYOlsEMBAEIQCAvAcyH+bwQyJuIxEMAAhAIRgDzeVn3C1J4RZxGsAxmIAhAAAJ5CWA+zOeFQN5EJB4CEIBAMAKYz8u6H7HYKsjQwTKYgSAAAQjkJYD5MJ8XAnkTkXgIQAACwQhgPi/rfkEKr4jTCJbBDAQBCEAgLwHMh/m8EMibiMRDAAIQCEagD823ubV98tTpxaXliBUPQwfLYAaCAAQgkJdAOPM1W63Jw0eGR0aNn8nDR5qtlq6KtMix8QndZ/XGrNHV8Mjo3PyCbb7Nre2p6Rk7WLVMTc9sbm3rE5DjemO23piVlxy4E8ibiMRDAAIQCEYgqPmmpmcMybmvpLbP5FrDTxmR6pJKtVap1uTyjAP3yIxOBvNUsAxmIAhAAAJ5CQyc+eqNWeWzfYu5xaXlsfEJVUcOpr0O8q7zJiLxEIAABIIR6AfzVao1XWNpNZ/aRJXIemM2Y59zcWl58n0fWFxaloODaGAArw2WwQwEAQhAIC+BMpmvUq3Zm6XKZ7rD9Lt6ynPqjqB9Q1GqOtGhUlS9MavfU1RDOG6QDqDkEt9y3kQkHgIQgEAwAkHNl/iEi76dKCpKexpleGRUd9Jue092L+fmF9QSnFbzJS7QRqNypCFCFTM3vzA8Mpp4yuiEl7vtvWAZzEAQgAAE8hIIZz7dB8YzKfqpXMeLS8tHjx1vtlpysNveO4j5jNF7NU+j20F4mTcRiYcABCAQjEARzddsteynQG2fqU1IKfXkvp0R2UUdKWbCfIIi70GwDGYgCEAAAnkJlNV86maeaE+ty2rn0zCfvWS7+8w90h5lwFvyJiLxEIAABIIRCGG+vFWXKubsW33GHb40tXRtvrzzTJsA7dznC/YHmIEgAIEuCIQwX14TOO52pnXbtfnSOqS9CwJd5CKXQAACEAhDoKDmS3wK1HfN18X6ziVpBMKkL6NAAAIQ6IJAEc2XtpjSXiICXeQil0AAAhAIQwDzefk3ekqkKE9TDZO+jAIBCECgCwKYD/N5IdBFLnIJBCAAgTAEMJ+Xdd9TIVWibsOkL6NAAAIQ6IIA5sN8Xgh0kYtcAgEIQCAMAcznZd0vUXHmaaph0pdRIAABCHRBAPNhPi8EushFLoEABCAQhgDm87LueyqkStRtmPRlFAhAAAJdEMB8mM8LgS5ykUsgAAEIhCHgxXyra+v8QAACEIAABIpJwIv5SrQpx1Q9EQjzixujQAACEOiCAObzstfnSScl6raLXOQSCEAAAmEIYD7M54VAmPRlFAhAAAJdEMB8Xtb9EhVnnqbaRS5yCQQgAIEwBDAf5vNCIEz6MgoEIACBLghgPi/rvqdCqkTddpGLXAIBCEAgDAHMh/m8EAiTvowCAQhAoAsCmM/Lul+i4szTVLvIRS6BAAQgEIYA5sN8XgiESV9GgQAEINAFgT403+bW9slTpxeXll2qmbn5hanpmc2tbSPYbq83ZuuNWSMs8eXi0vLJU6ftPhOD+7Wxi1zkEghAAAJhCIQzX7PVmjx8ZHhk1PiZPHyk2WrpAkiLHBuf0H1Wb8waXQ2PjM7NL9jmS4vcbe/ZhlMzsdsN821ubU9Nz8zNL8jMK9WaepltPqMfubzPDsKkL6NAAAIQ6IJAUPNNTc8YknNf7m2fybWGS9wjDfMpmdk2Vca1R3E0X5rI1UC2+OV9lfqgi1zkEghAAAJhCAyW+SrVWqVaU8ITwyXudtrW6dp8dleD0BImfRkFAhCAQBcE+sF8lWpNvwOXVvMtLi2PjU8YNZa9q2mUaLKfmWg+0adxYNvU6HZ4ZNSYSZ/psItc5BIIQAACYQiUyXyVas3eLFVG0U2jb1qKEVXY3PxCvTGrBxvmU9faV+229xLNJ17cbe9l3OdbXFo+euy4MfnFpeXJ931Av3PZT/ILk76MAgEIQKALAkHNl/iEi3osRS36qiwz6ifjpf2ci9rDFAnZNZ/SntrnVIoS+RnmsxUlwpPHZJQXcz3hkii5xMa+kV8XucglEIAABMIQCGc+fU0XneiNXRyLqORgt71nmM8o49Qo+g0/saC6dmp6xr3mM6yc8Wwnu51hEppRIAABCOxLoIjma7Za9lOghs9223uygalkJtuYdmSGU42aT7oVpUkp6W5rvtWw297bN/MIgAAEIBCLQFnNZ282qltxlWotzXz1xqxseIoLbfOpU3Z7ovn0WlP6xHyYL9afZ8aFAARcCIQwX967d/bGoKrAjDt8YhrjIJf59Gvn5hek1DMO1OOjsgsqVyWaT87utvfyvnf92lIfuyQfMRCAAASiEAhhvrwruONuZ1q3XZsvrUPV7l7zZfczIGejZDODQgACEHAhUFDzJT4FevCaz6jkcpWSaeYbG59I7FZuEA6I6oy36ZJ8xEAAAhCIQqCI5jPWUF6WkUCUbGZQCEAAAi4EMJ+Xf6OnjK7q7Zxdko8YCEAAAlEIYD7M54VAlGxmUAhAAAIuBDCfl3W/t/VTGXtzST5iIAABCEQhgPkwnxcCUbKZQSEAAQi4EMB8Xtb9MlZpvZ2zS/IRAwEIQCAKAcyH+bwQiJLNDAoBCEDAhQDm87Lu97Z+KmNvLslHDAQgAIEoBDAf5vNCIEo2MygEIAABFwJezLe6ts4PBCAAAQhAoJgEvJivjLtzzLm3BFx+7SIGAhCAQBQCmM/LXl9vLVLG3qJkM4NCAAIQcCGA+TCfFwIuyUcMBCAAgSgEMJ+Xdb+MVVpv5xwlmxkUAhCAgAsBzIf5vBBwST5iIAABCEQhgPm8rPu9rZ/K2FuUbGZQCEAAAi4EMB/m80LAJfmIgQAEIBCFAObzsu6XsUrr7ZyjZDODQgACEHAhgPkwnxcCLslHDAQgAIEoBGKar96YrTdmN7e2T546vbi03KuaI1eHi0vLJ0+d3tza3nd098h9uxqEgCjZzKAQgAAEXAgEMt/i0vLY+MTwyKj6mZqe2dzaTjTf5tb21PSMRBoH6kJljnpj1jg7PDI6N7+QYb5KtTY3v6CLx/BZ4ujqEiNS74Rjm4BL8hEDAQhAIAqBcOazS6tE89lr6L4tqh8JO7j5xI6GCHXvynAcJBKIks0MCgEIQMCFQEHNZ9ir2WpNTc80W63ERdbRfEpjlWptt703N78g9aLuMxVjmI+aLxF7dqNL8hEDAQhAIAqBcphvcWn56LHjaearVGv1xqwsxIY1pX1xaXlqeuboseMitt32nrGHifkE1wEPomQzg0IAAhBwIVAa89mbpWppbrZak4eP2HWbKunEiKJDFS/yczFfYnV4QDH0/eUuyUcMBCAAgSgEIptPSWVsfEKe7VRmEtkYB5OHjxiVX70xW6nW9EdXRHJiF1XJ6Racmp5RLxPNZwzKbqeQdD+Iks0MCgEIQMCFQGTzpX2rwdh1NPwk66/sgsrBbnvPMJ+hPblWHaT1bITZ+6J2AC06AZfkIwYCEIBAFAIlNp+xb1lvzKo9T8N8+nJsF5TqgRc9Rh0bX8MYHhmVktEOpsUmECWbGRQCEICAC4Fw5tO/z6dEkvGthn1rPiNArbxq5zPNfItLy5Pv+4Bsq6pLKtWafo9QNc7NL+gbsKqOnJqeSdOkve7T4pJ8xEAAAhCIQiCQ+RJNYJvPrrSMW27DI6OGk+ye08xnfPlBXZj4fQnjYVEVqW+o2oPSYhCIks0MCgEIQMCFQLHMZ6ye3b1MMx81X3c8u7vKJfmIgQAEIBCFwACZb7e9Z9/nS7t7Z1efaZHdiaHvr4qSzQwKAQhAwIVATPP1/eo/yG/QJfmIgQAEIBCFAObz8m/0DLLz1HuPks0MCgEIQMCFAObDfF4IuCQfMRCAAASiEMB8XtZ9ar4o2cygEIAABFwIYD7M54WAS/IRAwEIQCAKAcznZd2n5ouSzQwKAQhAwIUA5sN8Xgi4JB8xEIAABKIQwHxe1n1qvijZzKAQgAAEXAhgPsznhYBL8hEDAQhAIAoBL+ZbXVvnBwIQgAAEIFBMAl7Mx14fBKL8HsegEIAABFwIYD4ve32YzyX5iIEABCAQhQDmw3xeCETJZgaFAAQg4EIA83lZ96n5XJKPGAhAAAJRCGA+zOeFQJRsZlAIQAACLgQwn5d1n5rPJfmIgQAEE24LNQAABT5JREFUIBCFAObDfF4IRMlmBoUABCDgQgDzeVn3qflcko8YCEAAAlEIYD7M54VAlGxmUAhAAAIuBEKbr1Kt1RuzUhJtbm1PTc/MzS9IS08OFpeWjx473my1snvb3No+eer04tJydhhnuyDgknzEQAACEIhCoIjma7Zak4ePDI+M2j+GI5U4JUycapiv3piVGDmYm1/AfF0ozfGSKNnMoBCAAARcCAQyX6VaE+XIQb0xm6vmq1RruvnUtWI7/aVhPlms641Zid9t72E+IdPzA5fkIwYCEIBAFAKBzCcLa67dzmarNTU9I5uWhvmMs7vtvbn5hUq1ttvew3wCPNZBlGxmUAhAAAIuBIKaT5VlSk5qRVYtwyOjY+MT9v023W12faYXeaqAm5qeUSVdmvls73Kfz5MaXZKPGAhAAAJRCAQ1X6VaO3nqtPhJdKXvYeoLsW4+vV2ORZxqB1X6STSfun04NT2zubWtetAv13dBpX8OuiYQJZsZFAIQgIALgUDm062jjlXlp9yjG2tsfEJuBCYeJFaHLgt0vTFbqdb0LVO7jnTphxgXAi7JRwwEIACBKARCmE/pTd/k3G3vKQkZ5nNZUo2YufmFREFOHj4iNwj1O396OYj5DJg9fBklmxkUAhCAgAuBEObrYj3V9yGV2PRdyn071PW2295TVaZUlvXGrOoN8+1LsusAl+QjBgIQgEAUAuHMl1acDY+MipPUOmuISjXWG7NGGafa07qV4MSyUu18Yr6uxbbvhVGymUEhAAEIuBAIZ77EtTJRS3PzC3aFl2apxODEsezGtD7tSFryEnBJPmIgAAEIRCFQRPPlrflsTTou05jPEVQXYVGymUEhAAEIuBAQ833jX/8n7YmdDCW2SqP7QplY88m3HfRHV9L0lrbbaW+i2rPCfDaTXrVIMnAAAQhAoGgExHBbW1viPr0xccI9M1+v1ln6KRqBxLyhEQIQgEARCOiSU/IzWhInifm8/Ms+RbPXQeaTmDc0QgACECgCAcNz9svESWI+zLcPgcS8oRECEIBAEQjYqjNaEieJ+fZZ9w9SLfXHtYl5QyMEIACBIhAwPGe/TJwk5sN8+xBIzBsaIQABCBSBgK06oyVxkphvn3W/P+q2g7yLxLyhEQIQgEARCBies18mTnIf8yVeQyMEIAABCECgvAQwX3k/O2YOAQhAAALdEMB83VDjGghAAAIQKC8BzFfez46ZQwACEIBANwQwXzfUuAYCEIAABMpLAPOV97Nj5hCAAAQg0A0BzNcNNa6BAAQgAIHyEsB85f3smDkEIAABCHRDAPN1Q41rIAABCECgvAQwX3k/O2YOAQhAAALdEMB83VDjGghAAAIQKC8BzFfez46ZQwACEIBANwQwXzfUuAYCEIAABMpLYOj+/fvlnT0zhwAEIAABCOQlMLSzs5P3GuIhAAEIQAAC5SUwtLm5Wd7ZM3MIQAACEIBAXgJD169fz3sN8RCAAAQgAIHyEhi6du1au90u7xtg5hCAAAQgAIFcBIZuXP/ZrZs3c11DMAQgAAEIQKC8BIbe+MXNa9eu8ZxLeT9CZg4BCEAAArkIDL25eevmjeurq6u5LiMYAhCAAAQgUFICb5vvzc1ba6+t3rhxo6TvgWlDAAIQgAAEHAncuHHj1+Z7c/PWdeTniI0wCEAAAhAoJ4EbN26sXb/+jvlU5be6uso9v3J+oMwaAhCAAARSCezs7KyurjbX1u7eeeNfmU/d87t27dqtmzf5qkMqP05AAAIQgEB5CLTb7Vu3br2ttlvrd++8cffOG/8f1uFRUHZk7IoAAAAASUVORK5CYII=;" vertex="1" parent="1">
          <mxGeometry x="281" y="361" width="595" height="520" as="geometry" />
        </mxCell>
        <mxCell id="4Q7gMns1i78unIfoOugQ-5" value="" style="rounded=0;whiteSpace=wrap;html=1;fillColor=none;strokeColor=#FF3333;dashed=1;strokeWidth=5;" vertex="1" parent="1">
          <mxGeometry x="277" y="361" width="590" height="520" as="geometry" />
        </mxCell>
        <mxCell id="4Q7gMns1i78unIfoOugQ-6" value="" style="endArrow=classic;html=1;rounded=0;strokeColor=#FF3333;strokeWidth=4;" edge="1" parent="1">
          <mxGeometry width="50" height="50" relative="1" as="geometry">
            <mxPoint x="611" y="320" as="sourcePoint" />
            <mxPoint x="611" y="351" as="targetPoint" />
          </mxGeometry>
        </mxCell>
        <mxCell id="4Q7gMns1i78unIfoOugQ-8" value="" style="rounded=0;whiteSpace=wrap;html=1;fillColor=none;strokeColor=#FF3333;dashed=1;strokeWidth=5;" vertex="1" parent="1">
          <mxGeometry x="326" y="1004" width="624" height="668" as="geometry" />
        </mxCell>
      </root>
    </mxGraphModel>
  </diagram>
</mxfile>
